<?xml version="1.0" encoding="UTF-8" standalone="no"?><svg xmlns="http://www.w3.org/2000/svg" xmlns:xlink="http://www.w3.org/1999/xlink" contentScriptType="application/ecmascript" contentStyleType="text/css" height="568px" preserveAspectRatio="none" style="width:951px;height:568px;" version="1.1" viewBox="0 0 951 568" width="951px" zoomAndPan="magnify"><defs/><g><text fill="#000000" font-family="sans-serif" font-size="14" font-weight="bold" lengthAdjust="spacingAndGlyphs" textLength="181" x="385.75" y="23.5352">ActiveState::DoDeactivate</text><rect fill="#FFFFFF" height="413.6816" style="stroke: #A80036; stroke-width: 1.0;" width="10" x="106" y="95.9766"/><rect fill="#FFFFFF" height="75.9316" style="stroke: #A80036; stroke-width: 1.0;" width="10" x="111" y="133.2871"/><rect fill="#FFFFFF" height="29.3105" style="stroke: #A80036; stroke-width: 1.0;" width="10" x="308" y="245.2188"/><rect fill="#FFFFFF" height="57.6211" style="stroke: #A80036; stroke-width: 1.0;" width="10" x="544.5" y="328.1504"/><rect fill="#FFFFFF" height="14.3105" style="stroke: #A80036; stroke-width: 1.0;" width="10" x="746.5" y="357.4609"/><rect fill="#FFFFFF" height="177.5078" style="stroke: #000000; stroke-width: 1.0;" width="903" x="36.5" y="289.8398"/><rect fill="#FFFFFF" height="73.5762" style="stroke: none; stroke-width: 1.0;" width="903" x="36.5" y="393.7715"/><line style="stroke: #A80036; stroke-width: 1.0; stroke-dasharray: 5.0,5.0;" x1="110.5" x2="110.5" y1="64.9766" y2="527.6582"/><line style="stroke: #A80036; stroke-width: 1.0; stroke-dasharray: 5.0,5.0;" x1="312.5" x2="312.5" y1="64.9766" y2="527.6582"/><line style="stroke: #A80036; stroke-width: 1.0; stroke-dasharray: 5.0,5.0;" x1="549.5" x2="549.5" y1="64.9766" y2="527.6582"/><line style="stroke: #A80036; stroke-width: 1.0; stroke-dasharray: 5.0,5.0;" x1="751.5" x2="751.5" y1="64.9766" y2="527.6582"/><line style="stroke: #A80036; stroke-width: 1.0; stroke-dasharray: 5.0,5.0;" x1="878.5" x2="878.5" y1="64.9766" y2="527.6582"/><rect fill="#FEFECE" height="30.4883" style="stroke: #A80036; stroke-width: 1.5;" width="89" x="66.5" y="33.4883"/><text fill="#000000" font-family="sans-serif" font-size="14" lengthAdjust="spacingAndGlyphs" textLength="75" x="73.5" y="54.0234">ActiveState</text><rect fill="#FEFECE" height="30.4883" style="stroke: #A80036; stroke-width: 1.5;" width="89" x="66.5" y="526.6582"/><text fill="#000000" font-family="sans-serif" font-size="14" lengthAdjust="spacingAndGlyphs" textLength="75" x="73.5" y="547.1934">ActiveState</text><rect fill="#FEFECE" height="30.4883" style="stroke: #A80036; stroke-width: 1.5;" width="191" x="217.5" y="33.4883"/><text fill="#000000" font-family="sans-serif" font-size="14" lengthAdjust="spacingAndGlyphs" textLength="177" x="224.5" y="54.0234">ComponentConfiguration</text><rect fill="#FEFECE" height="30.4883" style="stroke: #A80036; stroke-width: 1.5;" width="191" x="217.5" y="526.6582"/><text fill="#000000" font-family="sans-serif" font-size="14" lengthAdjust="spacingAndGlyphs" textLength="177" x="224.5" y="547.1934">ComponentConfiguration</text><rect fill="#FEFECE" height="30.4883" style="stroke: #A80036; stroke-width: 1.5;" width="182" x="458.5" y="33.4883"/><text fill="#000000" font-family="sans-serif" font-size="14" lengthAdjust="spacingAndGlyphs" textLength="168" x="465.5" y="54.0234">ComponentInstanceImpl</text><rect fill="#FEFECE" height="30.4883" style="stroke: #A80036; stroke-width: 1.5;" width="182" x="458.5" y="526.6582"/><text fill="#000000" font-family="sans-serif" font-size="14" lengthAdjust="spacingAndGlyphs" textLength="168" x="465.5" y="547.1934">ComponentInstanceImpl</text><rect fill="#FEFECE" height="30.4883" style="stroke: #A80036; stroke-width: 1.5;" width="92" x="705.5" y="33.4883"/><text fill="#000000" font-family="sans-serif" font-size="14" lengthAdjust="spacingAndGlyphs" textLength="78" x="712.5" y="54.0234">ServiceImpl</text><rect fill="#FEFECE" height="30.4883" style="stroke: #A80036; stroke-width: 1.5;" width="92" x="705.5" y="526.6582"/><text fill="#000000" font-family="sans-serif" font-size="14" lengthAdjust="spacingAndGlyphs" textLength="78" x="712.5" y="547.1934">ServiceImpl</text><rect fill="#FEFECE" height="30.4883" style="stroke: #A80036; stroke-width: 1.5;" width="62" x="847.5" y="33.4883"/><text fill="#000000" font-family="sans-serif" font-size="14" lengthAdjust="spacingAndGlyphs" textLength="48" x="854.5" y="54.0234">Logger</text><rect fill="#FEFECE" height="30.4883" style="stroke: #A80036; stroke-width: 1.5;" width="62" x="847.5" y="526.6582"/><text fill="#000000" font-family="sans-serif" font-size="14" lengthAdjust="spacingAndGlyphs" textLength="48" x="854.5" y="547.1934">Logger</text><rect fill="#FFFFFF" height="413.6816" style="stroke: #A80036; stroke-width: 1.0;" width="10" x="106" y="95.9766"/><rect fill="#FFFFFF" height="75.9316" style="stroke: #A80036; stroke-width: 1.0;" width="10" x="111" y="133.2871"/><rect fill="#FFFFFF" height="29.3105" style="stroke: #A80036; stroke-width: 1.0;" width="10" x="308" y="245.2188"/><rect fill="#FFFFFF" height="57.6211" style="stroke: #A80036; stroke-width: 1.0;" width="10" x="544.5" y="328.1504"/><rect fill="#FFFFFF" height="14.3105" style="stroke: #A80036; stroke-width: 1.0;" width="10" x="746.5" y="357.4609"/><polygon fill="#A80036" points="94,91.9766,104,95.9766,94,99.9766,98,95.9766" style="stroke: #A80036; stroke-width: 1.0;"/><line style="stroke: #A80036; stroke-width: 1.0;" x1="3" x2="100" y1="95.9766" y2="95.9766"/><text fill="#000000" font-family="sans-serif" font-size="13" lengthAdjust="spacingAndGlyphs" textLength="84" x="10" y="91.5449">DoDeactivate</text><line style="stroke: #A80036; stroke-width: 1.0;" x1="116" x2="163" y1="120.5977" y2="120.5977"/><line style="stroke: #A80036; stroke-width: 1.0;" x1="163" x2="163" y1="120.5977" y2="133.5977"/><line style="stroke: #A80036; stroke-width: 1.0;" x1="122" x2="163" y1="133.5977" y2="133.5977"/><polygon fill="#A80036" points="132,129.5977,122,133.5977,132,137.5977,128,133.5977" style="stroke: #A80036; stroke-width: 1.0;"/><text fill="#000000" font-family="sans-serif" font-size="13" lengthAdjust="spacingAndGlyphs" textLength="176" x="128" y="115.8555">SatisfiedState_DoDeactivate</text><polygon fill="#FBFB77" points="126,151.5977,126,191.5977,336,191.5977,336,161.5977,326,151.5977,126,151.5977" style="stroke: #A80036; stroke-width: 1.0;"/><line style="stroke: #A80036; stroke-width: 1.0;" x1="326" x2="326" y1="151.5977" y2="161.5977"/><line style="stroke: #A80036; stroke-width: 1.0;" x1="336" x2="326" y1="161.5977" y2="161.5977"/><text fill="#000000" font-family="sans-serif" font-size="13" lengthAdjust="spacingAndGlyphs" textLength="185" x="132" y="169.166">see the sequence diagram for</text><text fill="#000000" font-family="sans-serif" font-size="13" lengthAdjust="spacingAndGlyphs" textLength="177" x="132" y="184.4766">SatisfiedState::DoDeactivate</text><line style="stroke: #A80036; stroke-width: 1.0; stroke-dasharray: 2.0,2.0;" x1="121" x2="163" y1="208.2188" y2="208.2188"/><line style="stroke: #A80036; stroke-width: 1.0; stroke-dasharray: 2.0,2.0;" x1="163" x2="163" y1="208.2188" y2="221.2188"/><line style="stroke: #A80036; stroke-width: 1.0; stroke-dasharray: 2.0,2.0;" x1="116" x2="163" y1="221.2188" y2="221.2188"/><polygon fill="#A80036" points="126,217.2188,116,221.2188,126,225.2188,122,221.2188" style="stroke: #A80036; stroke-width: 1.0;"/><polygon fill="#A80036" points="296,241.2188,306,245.2188,296,249.2188,300,245.2188" style="stroke: #A80036; stroke-width: 1.0;"/><line style="stroke: #A80036; stroke-width: 1.0;" x1="116" x2="302" y1="245.2188" y2="245.2188"/><text fill="#000000" font-family="sans-serif" font-size="13" lengthAdjust="spacingAndGlyphs" textLength="162" x="123" y="240.7871">GetCompInstanceWrapper</text><polygon fill="#A80036" points="127,270.5293,117,274.5293,127,278.5293,123,274.5293" style="stroke: #A80036; stroke-width: 1.0;"/><line style="stroke: #A80036; stroke-width: 1.0; stroke-dasharray: 2.0,2.0;" x1="121" x2="312" y1="274.5293" y2="274.5293"/><text fill="#000000" font-family="sans-serif" font-size="13" lengthAdjust="spacingAndGlyphs" textLength="141" x="133" y="270.0977">CompInstanceWrapper</text><rect fill="none" height="177.5078" style="stroke: #000000; stroke-width: 1.0;" width="903" x="36.5" y="289.8398"/><polygon fill="#EEEEEE" points="36.5,289.8398,100.5,289.8398,100.5,296.8398,90.5,306.8398,36.5,306.8398,36.5,289.8398" style="stroke: #000000; stroke-width: 1.0;"/><text fill="#000000" font-family="sans-serif" font-size="13" font-weight="bold" lengthAdjust="spacingAndGlyphs" textLength="19" x="51.5" y="303.4082">try</text><polygon fill="#A80036" points="532.5,324.1504,542.5,328.1504,532.5,332.1504,536.5,328.1504" style="stroke: #A80036; stroke-width: 1.0;"/><line style="stroke: #A80036; stroke-width: 1.0;" x1="116" x2="538.5" y1="328.1504" y2="328.1504"/><text fill="#000000" font-family="sans-serif" font-size="13" lengthAdjust="spacingAndGlyphs" textLength="66" x="123" y="323.7188">Deactivate</text><polygon fill="#A80036" points="734.5,353.4609,744.5,357.4609,734.5,361.4609,738.5,357.4609" style="stroke: #A80036; stroke-width: 1.0;"/><line style="stroke: #A80036; stroke-width: 1.0;" x1="554.5" x2="740.5" y1="357.4609" y2="357.4609"/><text fill="#000000" font-family="sans-serif" font-size="13" lengthAdjust="spacingAndGlyphs" textLength="173" x="561.5" y="353.0293">Deactivate(mCompContext)</text><polygon fill="#A80036" points="565.5,367.7715,555.5,371.7715,565.5,375.7715,561.5,371.7715" style="stroke: #A80036; stroke-width: 1.0;"/><line style="stroke: #A80036; stroke-width: 1.0; stroke-dasharray: 2.0,2.0;" x1="559.5" x2="750.5" y1="371.7715" y2="371.7715"/><polygon fill="#A80036" points="127,381.7715,117,385.7715,127,389.7715,123,385.7715" style="stroke: #A80036; stroke-width: 1.0;"/><line style="stroke: #A80036; stroke-width: 1.0; stroke-dasharray: 2.0,2.0;" x1="121" x2="548.5" y1="385.7715" y2="385.7715"/><line style="stroke: #000000; stroke-width: 1.0; stroke-dasharray: 2.0,2.0;" x1="36.5" x2="939.5" y1="394.7715" y2="394.7715"/><text fill="#000000" font-family="sans-serif" font-size="11" font-weight="bold" lengthAdjust="spacingAndGlyphs" textLength="102" x="41.5" y="405.4063">[caught exception]</text><polygon fill="#A80036" points="301,425.7266,311,429.7266,301,433.7266,305,429.7266" style="stroke: #A80036; stroke-width: 1.0;"/><line style="stroke: #A80036; stroke-width: 1.0;" x1="116" x2="307" y1="429.7266" y2="429.7266"/><text fill="#000000" font-family="sans-serif" font-size="13" lengthAdjust="spacingAndGlyphs" textLength="64" x="123" y="425.2949">GetLogger</text><polygon fill="#A80036" points="866.5,455.0371,876.5,459.0371,866.5,463.0371,870.5,459.0371" style="stroke: #A80036; stroke-width: 1.0;"/><line style="stroke: #A80036; stroke-width: 1.0;" x1="116" x2="872.5" y1="459.0371" y2="459.0371"/><text fill="#000000" font-family="sans-serif" font-size="13" lengthAdjust="spacingAndGlyphs" textLength="86" x="123" y="454.6055">log exception</text><polygon fill="#A80036" points="301,491.3477,311,495.3477,301,499.3477,305,495.3477" style="stroke: #A80036; stroke-width: 1.0;"/><line style="stroke: #A80036; stroke-width: 1.0;" x1="116" x2="307" y1="495.3477" y2="495.3477"/><text fill="#000000" font-family="sans-serif" font-size="13" lengthAdjust="spacingAndGlyphs" textLength="173" x="123" y="490.916">ClearCompInstanceWrapper</text><polygon fill="#A80036" points="14,505.6582,4,509.6582,14,513.6582,10,509.6582" style="stroke: #A80036; stroke-width: 1.0;"/><line style="stroke: #A80036; stroke-width: 1.0;" x1="8" x2="110" y1="509.6582" y2="509.6582"/><!--
@startuml
title ActiveState::DoDeactivate
skinparam ParticipantPadding 20
skinparam BoxPadding 10
skinparam shadowing false
skinparam sequenceGroupBorderThickness 1
participant ActiveState
[->ActiveState: DoDeactivate
activate ActiveState
ActiveState->ActiveState: SatisfiedState_DoDeactivate
activate ActiveState
note right of ActiveState 
          see the sequence diagram for 
          SatisfiedState::DoDeactivate
end note
ActiveState- ->ActiveState: 
deactivate ActiveState
ActiveState->ComponentConfiguration: GetCompInstanceWrapper
activate ComponentConfiguration
ComponentConfiguration- ->ActiveState: CompInstanceWrapper
deactivate ComponentConfiguration
group try
ActiveState->ComponentInstanceImpl: Deactivate
activate ComponentInstanceImpl
ComponentInstanceImpl->ServiceImpl: Deactivate(mCompContext)
activate ServiceImpl
ServiceImpl- ->ComponentInstanceImpl: 
deactivate ServiceImpl
ComponentInstanceImpl- -> ActiveState:
deactivate ComponentInstanceImpl
else caught exception
ActiveState->ComponentConfiguration: GetLogger
ActiveState->Logger: log exception
end
ActiveState->ComponentConfiguration: ClearCompInstanceWrapper
[<-ActiveState: 
deactivate ActiveState
@enduml

PlantUML version 1.2017.20(Mon Dec 11 11:57:05 EST 2017)
(GPL source distribution)
Java Runtime: Java(TM) SE Runtime Environment
JVM: Java HotSpot(TM) 64-Bit Server VM
Java Version: 1.8.0_151-b12
Operating System: Mac OS X
OS Version: 10.12.6
Default Encoding: UTF-8
Language: en
Country: US
--></g></svg>