<?xml version="1.0" encoding="UTF-8" standalone="no"?><svg xmlns="http://www.w3.org/2000/svg" xmlns:xlink="http://www.w3.org/1999/xlink" contentScriptType="application/ecmascript" contentStyleType="text/css" height="301px" preserveAspectRatio="none" style="width:541px;height:301px;" version="1.1" viewBox="0 0 541 301" width="541px" zoomAndPan="magnify"><defs><filter height="300%" id="fuzntbf" width="300%" x="-1" y="-1"><feGaussianBlur result="blurOut" stdDeviation="2.0"/><feColorMatrix in="blurOut" result="blurOut2" type="matrix" values="0 0 0 0 0 0 0 0 0 0 0 0 0 0 0 0 0 0 .4 0"/><feOffset dx="4.0" dy="4.0" in="blurOut2" result="blurOut3"/><feBlend in="SourceGraphic" in2="blurOut3" mode="normal"/></filter></defs><g><text fill="#000000" font-family="sans-serif" font-size="18" lengthAdjust="spacingAndGlyphs" textLength="302" x="131.5" y="17.4023">ComponentManager state diagram</text><ellipse cx="176" cy="39.1992" fill="#000000" filter="url(#fuzntbf)" rx="10" ry="10" style="stroke: none; stroke-width: 1.0;"/><rect fill="#FEFECE" filter="url(#fuzntbf)" height="50.6211" rx="12.5" ry="12.5" style="stroke: #A80036; stroke-width: 1.5;" width="254" x="49" y="111.6992"/><line style="stroke: #A80036; stroke-width: 1.5;" x1="49" x2="303" y1="138.1875" y2="138.1875"/><text fill="#000000" font-family="sans-serif" font-size="14" lengthAdjust="spacingAndGlyphs" textLength="93" x="129.5" y="130.2344">DisabledState</text><text fill="#000000" font-family="sans-serif" font-size="12" lengthAdjust="spacingAndGlyphs" textLength="234" x="54" y="154.7891">GetConfigurations() returns empty vector</text><ellipse cx="16" cy="267.1992" fill="none" filter="url(#fuzntbf)" rx="10" ry="10" style="stroke: #000000; stroke-width: 1.0;"/><ellipse cx="16.5" cy="267.6992" fill="#000000" rx="6" ry="6" style="stroke: none; stroke-width: 1.0;"/><rect fill="#FEFECE" filter="url(#fuzntbf)" height="50.6211" rx="12.5" ry="12.5" style="stroke: #A80036; stroke-width: 1.5;" width="397" x="61.75" y="241.6992"/><line style="stroke: #A80036; stroke-width: 1.5;" x1="61.75" x2="458.75" y1="268.1875" y2="268.1875"/><text fill="#000000" font-family="sans-serif" font-size="14" lengthAdjust="spacingAndGlyphs" textLength="89" x="215.75" y="260.2344">EnabledState</text><text fill="#000000" font-family="sans-serif" font-size="12" lengthAdjust="spacingAndGlyphs" textLength="377" x="66.75" y="284.7891">GetConfigurations() is blocked until deferred operation is finished</text><path d="M176,49.4042 C176,62.4142 176,86.7822 176,106.3932 " fill="none" style="stroke: #A80036; stroke-width: 1.0;"/><polygon fill="#A80036" points="176,111.5252,180,102.5252,176,106.5252,172,102.5252,176,111.5252" style="stroke: #A80036; stroke-width: 1.0;"/><path d="M143.248,162.7972 C116.244,183.3042 77.1333,213.5322 44,241.1992 C38.3726,245.8982 32.2838,251.2952 27.2259,255.8693 " fill="none" style="stroke: #A80036; stroke-width: 1.0;"/><polygon fill="#A80036" points="23.2525,259.4845,32.6014,256.3864,26.9508,256.1196,27.2176,250.4691,23.2525,259.4845" style="stroke: #A80036; stroke-width: 1.0;"/><path d="M168.818,163.0062 C165.956,177.8702 164.982,196.6451 173,211.1992 C179.013,222.1149 188.207,231.1651 198.402,238.556 " fill="none" style="stroke: #A80036; stroke-width: 1.0;"/><polygon fill="#A80036" points="202.51,241.4121,197.4039,232.9902,198.4047,238.5579,192.8371,239.5586,202.51,241.4121" style="stroke: #A80036; stroke-width: 1.0;"/><text fill="#000000" font-family="sans-serif" font-size="13" lengthAdjust="spacingAndGlyphs" textLength="41" x="174" y="206.7676">Enable</text><path d="M248.322,241.5125 C241.107,227.0357 231.285,208.6199 221,193.1992 C215.058,184.2902 207.973,175.1002 201.202,166.8432 " fill="none" style="stroke: #A80036; stroke-width: 1.0;"/><polygon fill="#A80036" points="197.91,162.8702,200.5721,172.3525,201.1001,166.7203,206.7322,167.2483,197.91,162.8702" style="stroke: #A80036; stroke-width: 1.0;"/><text fill="#000000" font-family="sans-serif" font-size="13" lengthAdjust="spacingAndGlyphs" textLength="47" x="233" y="206.7676">Disable</text><path d="M303.007,127.4842 C323.747,128.8752 338,132.1132 338,137.1992 C338,141.8482 326.091,144.9532 308.206,146.5142 " fill="none" style="stroke: #A80036; stroke-width: 1.0;"/><polygon fill="#A80036" points="303.007,146.9142,312.2868,150.2134,307.9923,146.5314,311.6743,142.2369,303.007,146.9142" style="stroke: #A80036; stroke-width: 1.0;"/><text fill="#000000" font-family="sans-serif" font-size="13" lengthAdjust="spacingAndGlyphs" textLength="47" x="344" y="141.7676">Disable</text><path d="M458.445,257.2179 C479.489,259.1534 493,262.4804 493,267.1992 C493,271.5124 481.712,274.6629 463.7,276.6507 " fill="none" style="stroke: #A80036; stroke-width: 1.0;"/><polygon fill="#A80036" points="458.445,277.1805,467.8008,280.2578,463.4198,276.6791,466.9985,272.2981,458.445,277.1805" style="stroke: #A80036; stroke-width: 1.0;"/><text fill="#000000" font-family="sans-serif" font-size="13" lengthAdjust="spacingAndGlyphs" textLength="41" x="499" y="271.7676">Enable</text></g></svg>