<?xml version="1.0" encoding="UTF-8" standalone="no"?><svg xmlns="http://www.w3.org/2000/svg" xmlns:xlink="http://www.w3.org/1999/xlink" contentScriptType="application/ecmascript" contentStyleType="text/css" height="862px" preserveAspectRatio="none" style="width:1513px;height:862px;" version="1.1" viewBox="0 0 1513 862" width="1513px" zoomAndPan="magnify"><defs/><g><text fill="#000000" font-family="sans-serif" font-size="14" font-weight="bold" lengthAdjust="spacingAndGlyphs" textLength="197" x="658.75" y="23.5352">ComponentManager::Enable</text><rect fill="#FFFFFF" height="674.4766" style="stroke: #A80036; stroke-width: 1.0;" width="10" x="115.5" y="112.4648"/><rect fill="#FFFFFF" height="29.3105" style="stroke: #A80036; stroke-width: 1.0;" width="10" x="120.5" y="316.3281"/><rect fill="#FFFFFF" height="14.3105" style="stroke: #A80036; stroke-width: 1.0;" width="10" x="120.5" y="487.1914"/><rect fill="#FFFFFF" height="29.3105" style="stroke: #A80036; stroke-width: 1.0;" width="10" x="120.5" y="633.3887"/><rect fill="#FFFFFF" height="615.8555" style="stroke: #A80036; stroke-width: 1.0;" width="10" x="450.5" y="141.7754"/><rect fill="#FFFFFF" height="14.3105" style="stroke: #A80036; stroke-width: 1.0;" width="10" x="592.5" y="171.0859"/><rect fill="#FFFFFF" height="14.3105" style="stroke: #A80036; stroke-width: 1.0;" width="10" x="592.5" y="214.3965"/><rect fill="#FFFFFF" height="58.6211" style="stroke: #A80036; stroke-width: 1.0;" width="10" x="732.5" y="399.2598"/><rect fill="#FFFFFF" height="29.3105" style="stroke: #A80036; stroke-width: 1.0;" width="10" x="732.5" y="559.8125"/><rect fill="#FFFFFF" height="29.3105" style="stroke: #A80036; stroke-width: 1.0;" width="10" x="896.5" y="257.707"/><rect fill="#FFFFFF" height="29.3105" style="stroke: #A80036; stroke-width: 1.0;" width="10" x="1115.5" y="692.0098"/><rect fill="#FFFFFF" height="368.6816" style="stroke: #000000; stroke-width: 1.0;" width="1488.5" x="13" y="360.9492"/><rect fill="#FFFFFF" height="132.1973" style="stroke: none; stroke-width: 1.0;" width="1488.5" x="13" y="597.4336"/><line style="stroke: #A80036; stroke-width: 1.0; stroke-dasharray: 5.0,5.0;" x1="120" x2="120" y1="81.4648" y2="805.252"/><line style="stroke: #A80036; stroke-width: 1.0; stroke-dasharray: 5.0,5.0;" x1="455.5" x2="455.5" y1="81.4648" y2="805.252"/><line style="stroke: #A80036; stroke-width: 1.0; stroke-dasharray: 5.0,5.0;" x1="597.5" x2="597.5" y1="81.4648" y2="805.252"/><line style="stroke: #A80036; stroke-width: 1.0; stroke-dasharray: 5.0,5.0;" x1="737.5" x2="737.5" y1="81.4648" y2="805.252"/><line style="stroke: #A80036; stroke-width: 1.0; stroke-dasharray: 5.0,5.0;" x1="901.5" x2="901.5" y1="81.4648" y2="805.252"/><line style="stroke: #A80036; stroke-width: 1.0; stroke-dasharray: 5.0,5.0;" x1="1120.5" x2="1120.5" y1="81.4648" y2="805.252"/><line style="stroke: #A80036; stroke-width: 1.0; stroke-dasharray: 5.0,5.0;" x1="1375.5" x2="1375.5" y1="81.4648" y2="805.252"/><rect fill="#FEFECE" height="30.4883" style="stroke: #A80036; stroke-width: 1.5;" width="155" x="43" y="49.9766"/><text fill="#000000" font-family="sans-serif" font-size="14" lengthAdjust="spacingAndGlyphs" textLength="141" x="50" y="70.5117">ComponentManager</text><rect fill="#FEFECE" height="30.4883" style="stroke: #A80036; stroke-width: 1.5;" width="155" x="43" y="804.252"/><text fill="#000000" font-family="sans-serif" font-size="14" lengthAdjust="spacingAndGlyphs" textLength="141" x="50" y="824.7871">ComponentManager</text><rect fill="#FEFECE" height="30.4883" style="stroke: #A80036; stroke-width: 1.5;" width="114" x="398.5" y="49.9766"/><text fill="#000000" font-family="sans-serif" font-size="14" lengthAdjust="spacingAndGlyphs" textLength="100" x="405.5" y="70.5117">Disabled_State</text><rect fill="#FEFECE" height="30.4883" style="stroke: #A80036; stroke-width: 1.5;" width="114" x="398.5" y="804.252"/><text fill="#000000" font-family="sans-serif" font-size="14" lengthAdjust="spacingAndGlyphs" textLength="100" x="405.5" y="824.7871">Disabled_State</text><rect fill="#FEFECE" height="30.4883" style="stroke: #A80036; stroke-width: 1.5;" width="70" x="562.5" y="49.9766"/><text fill="#000000" font-family="sans-serif" font-size="14" lengthAdjust="spacingAndGlyphs" textLength="56" x="569.5" y="70.5117">promise</text><rect fill="#FEFECE" height="30.4883" style="stroke: #A80036; stroke-width: 1.5;" width="70" x="562.5" y="804.252"/><text fill="#000000" font-family="sans-serif" font-size="14" lengthAdjust="spacingAndGlyphs" textLength="56" x="569.5" y="824.7871">promise</text><rect fill="#FEFECE" height="30.4883" style="stroke: #A80036; stroke-width: 1.5;" width="110" x="682.5" y="49.9766"/><text fill="#000000" font-family="sans-serif" font-size="14" lengthAdjust="spacingAndGlyphs" textLength="96" x="689.5" y="70.5117">Enabled_State</text><rect fill="#FEFECE" height="30.4883" style="stroke: #A80036; stroke-width: 1.5;" width="110" x="682.5" y="804.252"/><text fill="#000000" font-family="sans-serif" font-size="14" lengthAdjust="spacingAndGlyphs" textLength="96" x="689.5" y="824.7871">Enabled_State</text><rect fill="#FEFECE" height="30.4883" style="stroke: #A80036; stroke-width: 1.5;" width="118" x="842.5" y="49.9766"/><text fill="#000000" font-family="sans-serif" font-size="14" lengthAdjust="spacingAndGlyphs" textLength="104" x="849.5" y="70.5117">TransitionState</text><rect fill="#FEFECE" height="30.4883" style="stroke: #A80036; stroke-width: 1.5;" width="118" x="842.5" y="804.252"/><text fill="#000000" font-family="sans-serif" font-size="14" lengthAdjust="spacingAndGlyphs" textLength="104" x="849.5" y="824.7871">TransitionState</text><rect fill="#FEFECE" height="46.9766" style="stroke: #A80036; stroke-width: 1.5;" width="220" x="1010.5" y="33.4883"/><text fill="#000000" font-family="sans-serif" font-size="14" lengthAdjust="spacingAndGlyphs" textLength="206" x="1017.5" y="54.0234">ComponentManagerBaseState</text><text fill="#000000" font-family="sans-serif" font-size="14" lengthAdjust="spacingAndGlyphs" textLength="65" x="1088" y="70.5117">{abstract}</text><rect fill="#FEFECE" height="46.9766" style="stroke: #A80036; stroke-width: 1.5;" width="220" x="1010.5" y="804.252"/><text fill="#000000" font-family="sans-serif" font-size="14" lengthAdjust="spacingAndGlyphs" textLength="206" x="1017.5" y="824.7871">ComponentManagerBaseState</text><text fill="#000000" font-family="sans-serif" font-size="14" lengthAdjust="spacingAndGlyphs" textLength="65" x="1088" y="841.2754">{abstract}</text><rect fill="#99FF99" height="30.4883" style="stroke: #A80036; stroke-width: 1.5;" width="191" x="1280.5" y="49.9766"/><text fill="#000000" font-family="sans-serif" font-size="14" lengthAdjust="spacingAndGlyphs" textLength="177" x="1287.5" y="70.5117">ComponentConfiguration</text><rect fill="#99FF99" height="30.4883" style="stroke: #A80036; stroke-width: 1.5;" width="191" x="1280.5" y="804.252"/><text fill="#000000" font-family="sans-serif" font-size="14" lengthAdjust="spacingAndGlyphs" textLength="177" x="1287.5" y="824.7871">ComponentConfiguration</text><rect fill="#FFFFFF" height="674.4766" style="stroke: #A80036; stroke-width: 1.0;" width="10" x="115.5" y="112.4648"/><rect fill="#FFFFFF" height="29.3105" style="stroke: #A80036; stroke-width: 1.0;" width="10" x="120.5" y="316.3281"/><rect fill="#FFFFFF" height="14.3105" style="stroke: #A80036; stroke-width: 1.0;" width="10" x="120.5" y="487.1914"/><rect fill="#FFFFFF" height="29.3105" style="stroke: #A80036; stroke-width: 1.0;" width="10" x="120.5" y="633.3887"/><rect fill="#FFFFFF" height="615.8555" style="stroke: #A80036; stroke-width: 1.0;" width="10" x="450.5" y="141.7754"/><rect fill="#FFFFFF" height="14.3105" style="stroke: #A80036; stroke-width: 1.0;" width="10" x="592.5" y="171.0859"/><rect fill="#FFFFFF" height="14.3105" style="stroke: #A80036; stroke-width: 1.0;" width="10" x="592.5" y="214.3965"/><rect fill="#FFFFFF" height="58.6211" style="stroke: #A80036; stroke-width: 1.0;" width="10" x="732.5" y="399.2598"/><rect fill="#FFFFFF" height="29.3105" style="stroke: #A80036; stroke-width: 1.0;" width="10" x="732.5" y="559.8125"/><rect fill="#FFFFFF" height="29.3105" style="stroke: #A80036; stroke-width: 1.0;" width="10" x="896.5" y="257.707"/><rect fill="#FFFFFF" height="29.3105" style="stroke: #A80036; stroke-width: 1.0;" width="10" x="1115.5" y="692.0098"/><polygon fill="#A80036" points="103.5,108.4648,113.5,112.4648,103.5,116.4648,107.5,112.4648" style="stroke: #A80036; stroke-width: 1.0;"/><line style="stroke: #A80036; stroke-width: 1.0;" x1="3" x2="109.5" y1="112.4648" y2="112.4648"/><text fill="#000000" font-family="sans-serif" font-size="13" lengthAdjust="spacingAndGlyphs" textLength="41" x="10" y="108.0332">Enable</text><polygon fill="#A80036" points="438.5,137.7754,448.5,141.7754,438.5,145.7754,442.5,141.7754" style="stroke: #A80036; stroke-width: 1.0;"/><line style="stroke: #A80036; stroke-width: 1.0;" x1="125.5" x2="444.5" y1="141.7754" y2="141.7754"/><text fill="#000000" font-family="sans-serif" font-size="13" lengthAdjust="spacingAndGlyphs" textLength="73" x="132.5" y="137.3438">Enable(this)</text><polygon fill="#A80036" points="580.5,167.0859,590.5,171.0859,580.5,175.0859,584.5,171.0859" style="stroke: #A80036; stroke-width: 1.0;"/><line style="stroke: #A80036; stroke-width: 1.0;" x1="460.5" x2="586.5" y1="171.0859" y2="171.0859"/><text fill="#000000" font-family="sans-serif" font-size="13" lengthAdjust="spacingAndGlyphs" textLength="40" x="467.5" y="166.6543">Create</text><polygon fill="#A80036" points="471.5,181.3965,461.5,185.3965,471.5,189.3965,467.5,185.3965" style="stroke: #A80036; stroke-width: 1.0;"/><line style="stroke: #A80036; stroke-width: 1.0;" x1="465.5" x2="596.5" y1="185.3965" y2="185.3965"/><polygon fill="#A80036" points="580.5,210.3965,590.5,214.3965,580.5,218.3965,584.5,214.3965" style="stroke: #A80036; stroke-width: 1.0;"/><line style="stroke: #A80036; stroke-width: 1.0;" x1="460.5" x2="586.5" y1="214.3965" y2="214.3965"/><text fill="#000000" font-family="sans-serif" font-size="13" lengthAdjust="spacingAndGlyphs" textLength="61" x="467.5" y="209.9648">GetFuture</text><polygon fill="#A80036" points="471.5,224.707,461.5,228.707,471.5,232.707,467.5,228.707" style="stroke: #A80036; stroke-width: 1.0;"/><line style="stroke: #A80036; stroke-width: 1.0;" x1="465.5" x2="596.5" y1="228.707" y2="228.707"/><polygon fill="#A80036" points="884.5,253.707,894.5,257.707,884.5,261.707,888.5,257.707" style="stroke: #A80036; stroke-width: 1.0;"/><line style="stroke: #A80036; stroke-width: 1.0;" x1="460.5" x2="890.5" y1="257.707" y2="257.707"/><text fill="#000000" font-family="sans-serif" font-size="13" lengthAdjust="spacingAndGlyphs" textLength="86" x="467.5" y="253.2754">Create(future)</text><polygon fill="#A80036" points="471.5,283.0176,461.5,287.0176,471.5,291.0176,467.5,287.0176" style="stroke: #A80036; stroke-width: 1.0;"/><line style="stroke: #A80036; stroke-width: 1.0; stroke-dasharray: 2.0,2.0;" x1="465.5" x2="900.5" y1="287.0176" y2="287.0176"/><text fill="#000000" font-family="sans-serif" font-size="13" lengthAdjust="spacingAndGlyphs" textLength="92" x="477.5" y="282.5859">transitionState</text><polygon fill="#A80036" points="141.5,312.3281,131.5,316.3281,141.5,320.3281,137.5,316.3281" style="stroke: #A80036; stroke-width: 1.0;"/><line style="stroke: #A80036; stroke-width: 1.0;" x1="135.5" x2="449.5" y1="316.3281" y2="316.3281"/><text fill="#000000" font-family="sans-serif" font-size="13" lengthAdjust="spacingAndGlyphs" textLength="241" x="147.5" y="311.8965">CompareAndSwap(this,transitionState)</text><polygon fill="#A80036" points="438.5,341.6387,448.5,345.6387,438.5,349.6387,442.5,345.6387" style="stroke: #A80036; stroke-width: 1.0;"/><line style="stroke: #A80036; stroke-width: 1.0; stroke-dasharray: 2.0,2.0;" x1="125.5" x2="444.5" y1="345.6387" y2="345.6387"/><text fill="#000000" font-family="sans-serif" font-size="13" lengthAdjust="spacingAndGlyphs" textLength="97" x="132.5" y="341.207">success/failure</text><rect fill="none" height="368.6816" style="stroke: #000000; stroke-width: 1.0;" width="1488.5" x="13" y="360.9492"/><polygon fill="#EEEEEE" points="13,360.9492,75,360.9492,75,367.9492,65,377.9492,13,377.9492,13,360.9492" style="stroke: #000000; stroke-width: 1.0;"/><text fill="#000000" font-family="sans-serif" font-size="13" font-weight="bold" lengthAdjust="spacingAndGlyphs" textLength="17" x="28" y="374.5176">alt</text><text fill="#000000" font-family="sans-serif" font-size="11" font-weight="bold" lengthAdjust="spacingAndGlyphs" textLength="91" x="90" y="373.584">[swap suceeded]</text><polygon fill="#A80036" points="720.5,395.2598,730.5,399.2598,720.5,403.2598,724.5,399.2598" style="stroke: #A80036; stroke-width: 1.0;"/><line style="stroke: #A80036; stroke-width: 1.0;" x1="460.5" x2="726.5" y1="399.2598" y2="399.2598"/><text fill="#000000" font-family="sans-serif" font-size="13" lengthAdjust="spacingAndGlyphs" textLength="40" x="467.5" y="394.8281">Create</text><polygon fill="#0000FF" points="1364,424.5703,1374,428.5703,1364,432.5703,1368,428.5703" style="stroke: #0000FF; stroke-width: 1.0;"/><line style="stroke: #0000FF; stroke-width: 1.0; stroke-dasharray: 2.0,2.0;" x1="742.5" x2="1370" y1="428.5703" y2="428.5703"/><text fill="#000000" font-family="sans-serif" font-size="13" lengthAdjust="spacingAndGlyphs" textLength="90" x="749.5" y="424.1387">Create {Async}</text><polygon fill="#A80036" points="471.5,453.8809,461.5,457.8809,471.5,461.8809,467.5,457.8809" style="stroke: #A80036; stroke-width: 1.0;"/><line style="stroke: #A80036; stroke-width: 1.0; stroke-dasharray: 2.0,2.0;" x1="465.5" x2="736.5" y1="457.8809" y2="457.8809"/><text fill="#000000" font-family="sans-serif" font-size="13" lengthAdjust="spacingAndGlyphs" textLength="80" x="477.5" y="453.4492">enabledState</text><polygon fill="#A80036" points="141.5,483.1914,131.5,487.1914,141.5,491.1914,137.5,487.1914" style="stroke: #A80036; stroke-width: 1.0;"/><line style="stroke: #A80036; stroke-width: 1.0;" x1="135.5" x2="449.5" y1="487.1914" y2="487.1914"/><text fill="#000000" font-family="sans-serif" font-size="13" lengthAdjust="spacingAndGlyphs" textLength="301" x="147.5" y="482.7598">CompareAndSwap(transitionState, enabledState)</text><polygon fill="#A80036" points="438.5,497.502,448.5,501.502,438.5,505.502,442.5,501.502" style="stroke: #A80036; stroke-width: 1.0;"/><line style="stroke: #A80036; stroke-width: 1.0; stroke-dasharray: 2.0,2.0;" x1="125.5" x2="444.5" y1="501.502" y2="501.502"/><polygon fill="#A80036" points="585.5,526.502,595.5,530.502,585.5,534.502,589.5,530.502" style="stroke: #A80036; stroke-width: 1.0;"/><line style="stroke: #A80036; stroke-width: 1.0;" x1="460.5" x2="591.5" y1="530.502" y2="530.502"/><text fill="#000000" font-family="sans-serif" font-size="13" lengthAdjust="spacingAndGlyphs" textLength="59" x="467.5" y="526.0703">set_value</text><polygon fill="#A80036" points="720.5,555.8125,730.5,559.8125,720.5,563.8125,724.5,559.8125" style="stroke: #A80036; stroke-width: 1.0;"/><line style="stroke: #A80036; stroke-width: 1.0;" x1="460.5" x2="726.5" y1="559.8125" y2="559.8125"/><text fill="#000000" font-family="sans-serif" font-size="13" lengthAdjust="spacingAndGlyphs" textLength="61" x="467.5" y="555.3809">GetFuture</text><polygon fill="#A80036" points="471.5,585.123,461.5,589.123,471.5,593.123,467.5,589.123" style="stroke: #A80036; stroke-width: 1.0;"/><line style="stroke: #A80036; stroke-width: 1.0;" x1="465.5" x2="736.5" y1="589.123" y2="589.123"/><text fill="#000000" font-family="sans-serif" font-size="13" lengthAdjust="spacingAndGlyphs" textLength="87" x="477.5" y="584.6914">shared_future</text><line style="stroke: #000000; stroke-width: 1.0; stroke-dasharray: 2.0,2.0;" x1="13" x2="1501.5" y1="598.4336" y2="598.4336"/><text fill="#000000" font-family="sans-serif" font-size="11" font-weight="bold" lengthAdjust="spacingAndGlyphs" textLength="250" x="18" y="609.0684">[this object is not the current state anymore]</text><polygon fill="#A80036" points="141.5,629.3887,131.5,633.3887,141.5,637.3887,137.5,633.3887" style="stroke: #A80036; stroke-width: 1.0;"/><line style="stroke: #A80036; stroke-width: 1.0;" x1="135.5" x2="449.5" y1="633.3887" y2="633.3887"/><text fill="#000000" font-family="sans-serif" font-size="13" lengthAdjust="spacingAndGlyphs" textLength="52" x="147.5" y="628.957">GetState</text><polygon fill="#A80036" points="438.5,658.6992,448.5,662.6992,438.5,666.6992,442.5,662.6992" style="stroke: #A80036; stroke-width: 1.0;"/><line style="stroke: #A80036; stroke-width: 1.0; stroke-dasharray: 2.0,2.0;" x1="125.5" x2="444.5" y1="662.6992" y2="662.6992"/><text fill="#000000" font-family="sans-serif" font-size="13" lengthAdjust="spacingAndGlyphs" textLength="80" x="132.5" y="658.2676">current state</text><polygon fill="#A80036" points="1103.5,688.0098,1113.5,692.0098,1103.5,696.0098,1107.5,692.0098" style="stroke: #A80036; stroke-width: 1.0;"/><line style="stroke: #A80036; stroke-width: 1.0;" x1="460.5" x2="1109.5" y1="692.0098" y2="692.0098"/><text fill="#000000" font-family="sans-serif" font-size="13" lengthAdjust="spacingAndGlyphs" textLength="103" x="467.5" y="687.5781">Enable(manager)</text><polygon fill="#A80036" points="471.5,717.3203,461.5,721.3203,471.5,725.3203,467.5,721.3203" style="stroke: #A80036; stroke-width: 1.0;"/><line style="stroke: #A80036; stroke-width: 1.0;" x1="465.5" x2="1119.5" y1="721.3203" y2="721.3203"/><text fill="#000000" font-family="sans-serif" font-size="13" lengthAdjust="spacingAndGlyphs" textLength="87" x="477.5" y="716.8887">shared_future</text><polygon fill="#A80036" points="136.5,753.6309,126.5,757.6309,136.5,761.6309,132.5,757.6309" style="stroke: #A80036; stroke-width: 1.0;"/><line style="stroke: #A80036; stroke-width: 1.0; stroke-dasharray: 2.0,2.0;" x1="130.5" x2="454.5" y1="757.6309" y2="757.6309"/><text fill="#000000" font-family="sans-serif" font-size="13" lengthAdjust="spacingAndGlyphs" textLength="87" x="142.5" y="753.1992">shared_future</text><polygon fill="#A80036" points="14,782.9414,4,786.9414,14,790.9414,10,786.9414" style="stroke: #A80036; stroke-width: 1.0;"/><line style="stroke: #A80036; stroke-width: 1.0; stroke-dasharray: 2.0,2.0;" x1="8" x2="119.5" y1="786.9414" y2="786.9414"/><text fill="#000000" font-family="sans-serif" font-size="13" lengthAdjust="spacingAndGlyphs" textLength="87" x="20" y="782.5098">shared_future</text><!--
@startuml
title ComponentManager::Enable
skinparam ParticipantPadding 20
skinparam BoxPadding 10
skinparam shadowing false
skinparam sequenceGroupBorderThickness 1
participant ComponentManager
participant Disabled_State
participant promise
participant Enabled_State
participant TransitionState
participant "ComponentManagerBaseState\n{abstract}" as ComponentManagerBaseState
participant ComponentConfiguration #99FF99
[-> ComponentManager:Enable
activate ComponentManager
ComponentManager->Disabled_State:Enable(this)
activate Disabled_State
Disabled_State -> promise: Create
activate promise
promise ->Disabled_State:
deactivate promise
Disabled_State -> promise: GetFuture
activate promise
promise ->Disabled_State:
deactivate promise
Disabled_State->TransitionState:Create(future)
activate TransitionState
TransitionState - ->Disabled_State: transitionState
deactivate TransitionState
Disabled_State->ComponentManager:CompareAndSwap(this,transitionState)
activate ComponentManager
ComponentManager- ->Disabled_State: success/failure
deactivate ComponentManager
alt swap suceeded
Disabled_State->Enabled_State:Create
activate Enabled_State
Enabled_State-[#0000FF]->ComponentConfiguration:Create {Async}
Enabled_State- ->Disabled_State: enabledState
deactivate Enabled_State
Disabled_State->ComponentManager:CompareAndSwap(transitionState, enabledState)
activate ComponentManager
ComponentManager- ->Disabled_State:
deactivate ComponentManager
Disabled_State->promise:set_value
Disabled_State->Enabled_State: GetFuture
activate Enabled_State
Enabled_State->Disabled_State: shared_future
deactivate Enabled_State
else this object is not the current state anymore
Disabled_State->ComponentManager:GetState
activate ComponentManager
ComponentManager- ->Disabled_State: current state
deactivate ComponentManager
Disabled_State->ComponentManagerBaseState: Enable(manager)
activate ComponentManagerBaseState
ComponentManagerBaseState->Disabled_State: shared_future
deactivate ComponentManagerBaseState
end
Disabled_State- ->ComponentManager:shared_future
deactivate Disabled_State
[<- - ComponentManager: shared_future
deactivate ComponentManager
@enduml

PlantUML version 1.2017.20(Mon Dec 11 11:57:05 EST 2017)
(GPL source distribution)
Java Runtime: Java(TM) SE Runtime Environment
JVM: Java HotSpot(TM) 64-Bit Server VM
Java Version: 1.8.0_151-b12
Operating System: Mac OS X
OS Version: 10.12.6
Default Encoding: UTF-8
Language: en
Country: US
--></g></svg>