<?xml version="1.0" encoding="UTF-8" standalone="no"?><svg xmlns="http://www.w3.org/2000/svg" xmlns:xlink="http://www.w3.org/1999/xlink" contentScriptType="application/ecmascript" contentStyleType="text/css" height="431px" preserveAspectRatio="none" style="width:769px;height:431px;" version="1.1" viewBox="0 0 769 431" width="769px" zoomAndPan="magnify"><defs><filter height="300%" id="f27y68f" width="300%" x="-1" y="-1"><feGaussianBlur result="blurOut" stdDeviation="2.0"/><feColorMatrix in="blurOut" result="blurOut2" type="matrix" values="0 0 0 0 0 0 0 0 0 0 0 0 0 0 0 0 0 0 .4 0"/><feOffset dx="4.0" dy="4.0" in="blurOut2" result="blurOut3"/><feBlend in="SourceGraphic" in2="blurOut3" mode="normal"/></filter></defs><g><text fill="#000000" font-family="sans-serif" font-size="18" lengthAdjust="spacingAndGlyphs" textLength="346" x="223.5" y="17.4023">ComponentConfiguration state diagram</text><ellipse cx="227" cy="39.1992" fill="#000000" filter="url(#f27y68f)" rx="10" ry="10" style="stroke: none; stroke-width: 1.0;"/><rect fill="#FEFECE" filter="url(#f27y68f)" height="50.6211" rx="12.5" ry="12.5" style="stroke: #A80036; stroke-width: 1.5;" width="198" x="128" y="111.6992"/><line style="stroke: #A80036; stroke-width: 1.5;" x1="128" x2="326" y1="138.1875" y2="138.1875"/><text fill="#000000" font-family="sans-serif" font-size="14" lengthAdjust="spacingAndGlyphs" textLength="178" x="138" y="130.2344">UnsatisfiedReferenceState</text><text fill="#000000" font-family="sans-serif" font-size="12" lengthAdjust="spacingAndGlyphs" textLength="138" x="133" y="154.7891">service is not registered</text><ellipse cx="16" cy="267.1992" fill="none" filter="url(#f27y68f)" rx="10" ry="10" style="stroke: #000000; stroke-width: 1.0;"/><ellipse cx="16.5" cy="267.6992" fill="#000000" rx="6" ry="6" style="stroke: none; stroke-width: 1.0;"/><rect fill="#FEFECE" filter="url(#f27y68f)" height="50.6211" rx="12.5" ry="12.5" style="stroke: #A80036; stroke-width: 1.5;" width="333" x="61.75" y="241.6992"/><line style="stroke: #A80036; stroke-width: 1.5;" x1="61.75" x2="394.75" y1="268.1875" y2="268.1875"/><text fill="#000000" font-family="sans-serif" font-size="14" lengthAdjust="spacingAndGlyphs" textLength="92" x="182.25" y="260.2344">SatisfiedState</text><text fill="#000000" font-family="sans-serif" font-size="12" lengthAdjust="spacingAndGlyphs" textLength="313" x="66.75" y="284.7891">service is registered but component is not instantiated</text><rect fill="#FEFECE" filter="url(#f27y68f)" height="50.6211" rx="12.5" ry="12.5" style="stroke: #A80036; stroke-width: 1.5;" width="349" x="271.75" y="371.6992"/><line style="stroke: #A80036; stroke-width: 1.5;" x1="271.75" x2="620.75" y1="398.1875" y2="398.1875"/><text fill="#000000" font-family="sans-serif" font-size="14" lengthAdjust="spacingAndGlyphs" textLength="75" x="408.75" y="390.2344">ActiveState</text><text fill="#000000" font-family="sans-serif" font-size="12" lengthAdjust="spacingAndGlyphs" textLength="329" x="276.75" y="414.7891">service is registered and component instance is available</text><path d="M227,49.4042 C227,62.4142 227,86.7822 227,106.3932 " fill="none" style="stroke: #A80036; stroke-width: 1.0;"/><polygon fill="#A80036" points="227,111.5252,231,102.5252,227,106.5252,223,102.5252,227,111.5252" style="stroke: #A80036; stroke-width: 1.0;"/><path d="M176.694,162.7612 C138.904,182.0902 86.5564,210.7692 44,241.1992 C37.7481,245.6692 31.314,251.3272 26.1924,256.1292 " fill="none" style="stroke: #A80036; stroke-width: 1.0;"/><polygon fill="#A80036" points="22.5565,259.6002,31.8279,256.2774,26.1725,256.1471,26.3028,250.4917,22.5565,259.6002" style="stroke: #A80036; stroke-width: 1.0;"/><path d="M196.218,162.7192 C183.181,176.2312 172.36,193.7642 179,211.1992 C182.677,220.8532 188.912,229.8912 195.725,237.7402 " fill="none" style="stroke: #A80036; stroke-width: 1.0;"/><polygon fill="#A80036" points="199.108,241.4962,196.0563,232.1321,195.7615,237.7812,190.1124,237.4864,199.108,241.4962" style="stroke: #A80036; stroke-width: 1.0;"/><text fill="#000000" font-family="sans-serif" font-size="13" lengthAdjust="spacingAndGlyphs" textLength="48" x="180" y="206.7676">Resolve</text><path d="M231.813,241.5492 C233.553,227.4082 235.022,209.3162 234,193.1992 C233.476,184.9262 232.512,175.9942 231.464,167.7832 " fill="none" style="stroke: #A80036; stroke-width: 1.0;"/><polygon fill="#A80036" points="230.803,162.7762,228.0124,172.2215,231.4559,167.7334,235.9439,171.1769,230.803,162.7762" style="stroke: #A80036; stroke-width: 1.0;"/><text fill="#000000" font-family="sans-serif" font-size="13" lengthAdjust="spacingAndGlyphs" textLength="66" x="236" y="206.7676">Deactivate</text><path d="M326.049,127.0842 C346.398,128.1672 361,131.5392 361,137.1992 C361,142.3732 348.8,145.6352 331.162,146.9842 " fill="none" style="stroke: #A80036; stroke-width: 1.0;"/><polygon fill="#A80036" points="326.049,147.3142,335.2885,150.7248,331.0386,146.9914,334.772,142.7415,326.049,147.3142" style="stroke: #A80036; stroke-width: 1.0;"/><text fill="#000000" font-family="sans-serif" font-size="13" lengthAdjust="spacingAndGlyphs" textLength="125" x="367" y="141.7676">Activate, Deactivate</text><path d="M269.775,292.7272 C306.841,314.4912 360.924,346.2464 399.385,368.8289 " fill="none" style="stroke: #A80036; stroke-width: 1.0;"/><polygon fill="#A80036" points="403.996,371.5361,398.2599,363.53,399.6842,369.0046,394.2096,370.4289,403.996,371.5361" style="stroke: #A80036; stroke-width: 1.0;"/><text fill="#000000" font-family="sans-serif" font-size="13" lengthAdjust="spacingAndGlyphs" textLength="51" x="351" y="336.7676">Activate</text><path d="M394.36,256.7492 C415.252,258.5912 429,262.0742 429,267.1992 C429,271.8842 417.513,275.1972 399.584,277.1382 " fill="none" style="stroke: #A80036; stroke-width: 1.0;"/><polygon fill="#A80036" points="394.36,277.6492,403.7068,280.7535,399.3362,277.1622,402.9276,272.7915,394.36,277.6492" style="stroke: #A80036; stroke-width: 1.0;"/><text fill="#000000" font-family="sans-serif" font-size="13" lengthAdjust="spacingAndGlyphs" textLength="48" x="435" y="271.7676">Resolve</text><path d="M464.973,371.6265 C487.478,339.2521 518.664,281.6872 491,241.1992 C455.234,188.8542 388.584,163.1082 331.204,150.4472 " fill="none" style="stroke: #A80036; stroke-width: 1.0;"/><polygon fill="#A80036" points="326.035,149.3362,333.9927,155.1392,330.9232,150.3876,335.6749,147.3181,326.035,149.3362" style="stroke: #A80036; stroke-width: 1.0;"/><text fill="#000000" font-family="sans-serif" font-size="13" lengthAdjust="spacingAndGlyphs" textLength="66" x="502" y="271.7676">Deactivate</text><path d="M620.558,386.8867 C641.393,388.7617 655,392.1992 655,397.1992 C655,401.7695 643.631,405.0343 625.765,406.9937 " fill="none" style="stroke: #A80036; stroke-width: 1.0;"/><polygon fill="#A80036" points="620.558,407.5117,629.9102,410.5997,625.5334,407.016,629.1171,402.6392,620.558,407.5117" style="stroke: #A80036; stroke-width: 1.0;"/><text fill="#000000" font-family="sans-serif" font-size="13" lengthAdjust="spacingAndGlyphs" textLength="107" x="661" y="401.7676">Resolve, Activate</text></g></svg>