<?xml version="1.0" encoding="UTF-8" standalone="no"?><svg xmlns="http://www.w3.org/2000/svg" xmlns:xlink="http://www.w3.org/1999/xlink" contentScriptType="application/ecmascript" contentStyleType="text/css" height="437px" preserveAspectRatio="none" style="width:851px;height:437px;" version="1.1" viewBox="0 0 851 437" width="851px" zoomAndPan="magnify"><defs/><g><rect fill="#FFFFFF" height="229.4844" style="stroke: #A80036; stroke-width: 1.0;" width="10" x="212" y="113.4883"/><rect fill="#FFFFFF" height="29.3105" style="stroke: #A80036; stroke-width: 1.0;" width="10" x="453" y="142.7988"/><rect fill="#FFFFFF" height="64.9316" style="stroke: #A80036; stroke-width: 1.0;" width="10" x="615.5" y="225.7305"/><rect fill="#FFFFFF" height="142.5527" style="stroke: #000000; stroke-width: 1.0;" width="733" x="117" y="187.4199"/><rect fill="#FFFFFF" height="31.3105" style="stroke: none; stroke-width: 1.0;" width="733" x="117" y="298.6621"/><line style="stroke: #A80036; stroke-width: 1.0; stroke-dasharray: 5.0,5.0;" x1="31" x2="31" y1="82.4883" y2="360.9727"/><line style="stroke: #A80036; stroke-width: 1.0; stroke-dasharray: 5.0,5.0;" x1="217" x2="217" y1="82.4883" y2="360.9727"/><line style="stroke: #A80036; stroke-width: 1.0; stroke-dasharray: 5.0,5.0;" x1="458" x2="458" y1="82.4883" y2="360.9727"/><line style="stroke: #A80036; stroke-width: 1.0; stroke-dasharray: 5.0,5.0;" x1="620" x2="620" y1="82.4883" y2="360.9727"/><line style="stroke: #A80036; stroke-width: 1.0; stroke-dasharray: 5.0,5.0;" x1="763" x2="763" y1="82.4883" y2="360.9727"/><text fill="#000000" font-family="sans-serif" font-size="14" lengthAdjust="spacingAndGlyphs" textLength="40" x="8" y="79.5352">Client</text><ellipse cx="31" cy="13" fill="#FEFECE" rx="8" ry="8" style="stroke: #A80036; stroke-width: 2.0;"/><path d="M31,21 L31,48 M18,29 L44,29 M31,48 L18,63 M31,48 L44,63 " fill="#FEFECE" style="stroke: #A80036; stroke-width: 2.0;"/><text fill="#000000" font-family="sans-serif" font-size="14" lengthAdjust="spacingAndGlyphs" textLength="40" x="8" y="373.5078">Client</text><ellipse cx="31" cy="386.4609" fill="#FEFECE" rx="8" ry="8" style="stroke: #A80036; stroke-width: 2.0;"/><path d="M31,394.4609 L31,421.4609 M18,402.4609 L44,402.4609 M31,421.4609 L18,436.4609 M31,421.4609 L44,436.4609 " fill="#FEFECE" style="stroke: #A80036; stroke-width: 2.0;"/><rect fill="#FEFECE" height="30.4883" style="stroke: #A80036; stroke-width: 1.5;" width="180" x="127" y="51"/><text fill="#000000" font-family="sans-serif" font-size="14" lengthAdjust="spacingAndGlyphs" textLength="166" x="134" y="71.5352">ComponentContextImpl</text><rect fill="#FEFECE" height="30.4883" style="stroke: #A80036; stroke-width: 1.5;" width="180" x="127" y="359.9727"/><text fill="#000000" font-family="sans-serif" font-size="14" lengthAdjust="spacingAndGlyphs" textLength="166" x="134" y="380.5078">ComponentContextImpl</text><rect fill="#FEFECE" height="30.4883" style="stroke: #A80036; stroke-width: 1.5;" width="150" x="383" y="51"/><text fill="#000000" font-family="sans-serif" font-size="14" lengthAdjust="spacingAndGlyphs" textLength="136" x="390" y="71.5352">ComponentRegistry</text><rect fill="#FEFECE" height="30.4883" style="stroke: #A80036; stroke-width: 1.5;" width="150" x="383" y="359.9727"/><text fill="#000000" font-family="sans-serif" font-size="14" lengthAdjust="spacingAndGlyphs" textLength="136" x="390" y="380.5078">ComponentRegistry</text><rect fill="#FEFECE" height="30.4883" style="stroke: #A80036; stroke-width: 1.5;" width="155" x="543" y="51"/><text fill="#000000" font-family="sans-serif" font-size="14" lengthAdjust="spacingAndGlyphs" textLength="141" x="550" y="71.5352">ComponentManager</text><rect fill="#FEFECE" height="30.4883" style="stroke: #A80036; stroke-width: 1.5;" width="155" x="543" y="359.9727"/><text fill="#000000" font-family="sans-serif" font-size="14" lengthAdjust="spacingAndGlyphs" textLength="141" x="550" y="380.5078">ComponentManager</text><rect fill="#FEFECE" height="30.4883" style="stroke: #A80036; stroke-width: 1.5;" width="110" x="708" y="51"/><text fill="#000000" font-family="sans-serif" font-size="14" lengthAdjust="spacingAndGlyphs" textLength="96" x="715" y="71.5352">runtime_error</text><rect fill="#FEFECE" height="30.4883" style="stroke: #A80036; stroke-width: 1.5;" width="110" x="708" y="359.9727"/><text fill="#000000" font-family="sans-serif" font-size="14" lengthAdjust="spacingAndGlyphs" textLength="96" x="715" y="380.5078">runtime_error</text><rect fill="#FFFFFF" height="229.4844" style="stroke: #A80036; stroke-width: 1.0;" width="10" x="212" y="113.4883"/><rect fill="#FFFFFF" height="29.3105" style="stroke: #A80036; stroke-width: 1.0;" width="10" x="453" y="142.7988"/><rect fill="#FFFFFF" height="64.9316" style="stroke: #A80036; stroke-width: 1.0;" width="10" x="615.5" y="225.7305"/><polygon fill="#A80036" points="200,109.4883,210,113.4883,200,117.4883,204,113.4883" style="stroke: #A80036; stroke-width: 1.0;"/><line style="stroke: #A80036; stroke-width: 1.0;" x1="31" x2="206" y1="113.4883" y2="113.4883"/><text fill="#000000" font-family="sans-serif" font-size="13" lengthAdjust="spacingAndGlyphs" textLength="162" x="38" y="109.0566">DisableComponent(name)</text><polygon fill="#A80036" points="441,138.7988,451,142.7988,441,146.7988,445,142.7988" style="stroke: #A80036; stroke-width: 1.0;"/><line style="stroke: #A80036; stroke-width: 1.0;" x1="222" x2="447" y1="142.7988" y2="142.7988"/><text fill="#000000" font-family="sans-serif" font-size="13" lengthAdjust="spacingAndGlyphs" textLength="212" x="229" y="138.3672">GetComponent(name, mBundleID)</text><polygon fill="#A80036" points="233,168.1094,223,172.1094,233,176.1094,229,172.1094" style="stroke: #A80036; stroke-width: 1.0;"/><line style="stroke: #A80036; stroke-width: 1.0; stroke-dasharray: 2.0,2.0;" x1="227" x2="457" y1="172.1094" y2="172.1094"/><text fill="#000000" font-family="sans-serif" font-size="13" lengthAdjust="spacingAndGlyphs" textLength="59" x="239" y="167.6777">compMgr</text><rect fill="none" height="142.5527" style="stroke: #000000; stroke-width: 1.0;" width="733" x="117" y="187.4199"/><polygon fill="#EEEEEE" points="117,187.4199,179,187.4199,179,194.4199,169,204.4199,117,204.4199,117,187.4199" style="stroke: #000000; stroke-width: 1.0;"/><text fill="#000000" font-family="sans-serif" font-size="13" font-weight="bold" lengthAdjust="spacingAndGlyphs" textLength="17" x="132" y="200.9883">alt</text><text fill="#000000" font-family="sans-serif" font-size="11" font-weight="bold" lengthAdjust="spacingAndGlyphs" textLength="107" x="194" y="200.0547">[component found]</text><polygon fill="#A80036" points="603.5,221.7305,613.5,225.7305,603.5,229.7305,607.5,225.7305" style="stroke: #A80036; stroke-width: 1.0;"/><line style="stroke: #A80036; stroke-width: 1.0;" x1="222" x2="609.5" y1="225.7305" y2="225.7305"/><text fill="#000000" font-family="sans-serif" font-size="13" lengthAdjust="spacingAndGlyphs" textLength="47" x="229" y="221.2988">Disable</text><polygon fill="#FBFB77" points="630,239.041,630,279.041,840,279.041,840,249.041,830,239.041,630,239.041" style="stroke: #A80036; stroke-width: 1.0;"/><line style="stroke: #A80036; stroke-width: 1.0;" x1="830" x2="830" y1="239.041" y2="249.041"/><line style="stroke: #A80036; stroke-width: 1.0;" x1="840" x2="830" y1="249.041" y2="249.041"/><text fill="#000000" font-family="sans-serif" font-size="13" lengthAdjust="spacingAndGlyphs" textLength="185" x="636" y="256.6094">see the sequence diagram for</text><text fill="#000000" font-family="sans-serif" font-size="13" lengthAdjust="spacingAndGlyphs" textLength="181" x="636" y="271.9199">ComponentManager::Disable</text><polygon fill="#A80036" points="233,286.6621,223,290.6621,233,294.6621,229,290.6621" style="stroke: #A80036; stroke-width: 1.0;"/><line style="stroke: #A80036; stroke-width: 1.0; stroke-dasharray: 2.0,2.0;" x1="227" x2="619.5" y1="290.6621" y2="290.6621"/><line style="stroke: #000000; stroke-width: 1.0; stroke-dasharray: 2.0,2.0;" x1="117" x2="850" y1="299.6621" y2="299.6621"/><polygon fill="#A80036" points="751,317.6621,761,321.6621,751,325.6621,755,321.6621" style="stroke: #A80036; stroke-width: 1.0;"/><line style="stroke: #A80036; stroke-width: 1.0;" x1="222" x2="757" y1="321.6621" y2="321.6621"/><text fill="#000000" font-family="sans-serif" font-size="13" lengthAdjust="spacingAndGlyphs" textLength="193" x="229" y="317.2305">throw("Component not found")</text><polygon fill="#A80036" points="42,338.9727,32,342.9727,42,346.9727,38,342.9727" style="stroke: #A80036; stroke-width: 1.0;"/><line style="stroke: #A80036; stroke-width: 1.0; stroke-dasharray: 2.0,2.0;" x1="36" x2="216" y1="342.9727" y2="342.9727"/></g></svg>