<?xml version="1.0" encoding="UTF-8" standalone="no"?><svg xmlns="http://www.w3.org/2000/svg" xmlns:xlink="http://www.w3.org/1999/xlink" contentScriptType="application/ecmascript" contentStyleType="text/css" height="383px" preserveAspectRatio="none" style="width:847px;height:383px;" version="1.1" viewBox="0 0 847 383" width="847px" zoomAndPan="magnify"><defs/><g><text fill="#000000" font-family="sans-serif" font-size="14" font-weight="bold" lengthAdjust="spacingAndGlyphs" textLength="245" x="301.5" y="23.5352">ComponentConfiguration::Resolve</text><rect fill="#FFFFFF" height="64.9316" style="stroke: #A80036; stroke-width: 1.0;" width="10" x="567" y="239.5293"/><rect fill="#FFFFFF" height="75.9316" style="stroke: #000000; stroke-width: 1.0;" width="443" x="13" y="111.2871"/><rect fill="#FFFFFF" height="111.2422" style="stroke: #000000; stroke-width: 1.0;" width="822" x="13" y="201.2188"/><line style="stroke: #A80036; stroke-width: 1.0; stroke-dasharray: 5.0,5.0;" x1="138" x2="138" y1="64.9766" y2="343.4609"/><line style="stroke: #A80036; stroke-width: 1.0; stroke-dasharray: 5.0,5.0;" x1="355" x2="355" y1="64.9766" y2="343.4609"/><line style="stroke: #A80036; stroke-width: 1.0; stroke-dasharray: 5.0,5.0;" x1="572" x2="572" y1="64.9766" y2="343.4609"/><rect fill="#FEFECE" height="30.4883" style="stroke: #A80036; stroke-width: 1.5;" width="191" x="43" y="33.4883"/><text fill="#000000" font-family="sans-serif" font-size="14" lengthAdjust="spacingAndGlyphs" textLength="177" x="50" y="54.0234">ComponentConfiguration</text><rect fill="#FEFECE" height="30.4883" style="stroke: #A80036; stroke-width: 1.5;" width="191" x="43" y="342.4609"/><text fill="#000000" font-family="sans-serif" font-size="14" lengthAdjust="spacingAndGlyphs" textLength="177" x="50" y="362.9961">ComponentConfiguration</text><rect fill="#FEFECE" height="30.4883" style="stroke: #A80036; stroke-width: 1.5;" width="142" x="284" y="33.4883"/><text fill="#000000" font-family="sans-serif" font-size="14" lengthAdjust="spacingAndGlyphs" textLength="128" x="291" y="54.0234">ReferenceManager</text><rect fill="#FEFECE" height="30.4883" style="stroke: #A80036; stroke-width: 1.5;" width="142" x="284" y="342.4609"/><text fill="#000000" font-family="sans-serif" font-size="14" lengthAdjust="spacingAndGlyphs" textLength="128" x="291" y="362.9961">ReferenceManager</text><rect fill="#FEFECE" height="30.4883" style="stroke: #A80036; stroke-width: 1.5;" width="192" x="476" y="33.4883"/><text fill="#000000" font-family="sans-serif" font-size="14" lengthAdjust="spacingAndGlyphs" textLength="178" x="483" y="54.0234">UnsatisfiedReferenceState</text><rect fill="#FEFECE" height="30.4883" style="stroke: #A80036; stroke-width: 1.5;" width="192" x="476" y="342.4609"/><text fill="#000000" font-family="sans-serif" font-size="14" lengthAdjust="spacingAndGlyphs" textLength="178" x="483" y="362.9961">UnsatisfiedReferenceState</text><rect fill="#FFFFFF" height="64.9316" style="stroke: #A80036; stroke-width: 1.0;" width="10" x="567" y="239.5293"/><polygon fill="#A80036" points="126.5,91.9766,136.5,95.9766,126.5,99.9766,130.5,95.9766" style="stroke: #A80036; stroke-width: 1.0;"/><line style="stroke: #A80036; stroke-width: 1.0;" x1="3" x2="132.5" y1="95.9766" y2="95.9766"/><text fill="#000000" font-family="sans-serif" font-size="13" lengthAdjust="spacingAndGlyphs" textLength="48" x="10" y="91.5449">Resolve</text><rect fill="none" height="75.9316" style="stroke: #000000; stroke-width: 1.0;" width="443" x="13" y="111.2871"/><polygon fill="#EEEEEE" points="13,111.2871,87,111.2871,87,118.2871,77,128.2871,13,128.2871,13,111.2871" style="stroke: #000000; stroke-width: 1.0;"/><text fill="#000000" font-family="sans-serif" font-size="13" font-weight="bold" lengthAdjust="spacingAndGlyphs" textLength="29" x="28" y="124.8555">loop</text><text fill="#000000" font-family="sans-serif" font-size="11" font-weight="bold" lengthAdjust="spacingAndGlyphs" textLength="170" x="102" y="123.9219">[for each dependencyManager]</text><polygon fill="#A80036" points="343,145.5977,353,149.5977,343,153.5977,347,149.5977" style="stroke: #A80036; stroke-width: 1.0;"/><line style="stroke: #A80036; stroke-width: 1.0;" x1="138.5" x2="349" y1="149.5977" y2="149.5977"/><text fill="#000000" font-family="sans-serif" font-size="13" lengthAdjust="spacingAndGlyphs" textLength="65" x="145.5" y="145.166">IsSatisfied</text><polygon fill="#A80036" points="149.5,174.9082,139.5,178.9082,149.5,182.9082,145.5,178.9082" style="stroke: #A80036; stroke-width: 1.0;"/><line style="stroke: #A80036; stroke-width: 1.0; stroke-dasharray: 2.0,2.0;" x1="143.5" x2="354" y1="178.9082" y2="178.9082"/><text fill="#000000" font-family="sans-serif" font-size="13" lengthAdjust="spacingAndGlyphs" textLength="62" x="155.5" y="174.4766">true/false</text><rect fill="none" height="111.2422" style="stroke: #000000; stroke-width: 1.0;" width="822" x="13" y="201.2188"/><polygon fill="#EEEEEE" points="13,201.2188,75,201.2188,75,208.2188,65,218.2188,13,218.2188,13,201.2188" style="stroke: #000000; stroke-width: 1.0;"/><text fill="#000000" font-family="sans-serif" font-size="13" font-weight="bold" lengthAdjust="spacingAndGlyphs" textLength="17" x="28" y="214.7871">alt</text><text fill="#000000" font-family="sans-serif" font-size="11" font-weight="bold" lengthAdjust="spacingAndGlyphs" textLength="153" x="90" y="213.8535">[all dependencies satisfied]</text><polygon fill="#A80036" points="555,235.5293,565,239.5293,555,243.5293,559,239.5293" style="stroke: #A80036; stroke-width: 1.0;"/><line style="stroke: #A80036; stroke-width: 1.0;" x1="138.5" x2="561" y1="239.5293" y2="239.5293"/><text fill="#000000" font-family="sans-serif" font-size="13" lengthAdjust="spacingAndGlyphs" textLength="83" x="145.5" y="235.0977">Register(this)</text><polygon fill="#FBFB77" points="582,252.8398,582,292.8398,825,292.8398,825,262.8398,815,252.8398,582,252.8398" style="stroke: #A80036; stroke-width: 1.0;"/><line style="stroke: #A80036; stroke-width: 1.0;" x1="815" x2="815" y1="252.8398" y2="262.8398"/><line style="stroke: #A80036; stroke-width: 1.0;" x1="825" x2="815" y1="262.8398" y2="262.8398"/><text fill="#000000" font-family="sans-serif" font-size="13" lengthAdjust="spacingAndGlyphs" textLength="185" x="588" y="270.4082">see the sequence diagram for</text><text fill="#000000" font-family="sans-serif" font-size="13" lengthAdjust="spacingAndGlyphs" textLength="222" x="588" y="285.7188">UnsatisfiedReferenceState::Register</text><polygon fill="#A80036" points="149.5,300.4609,139.5,304.4609,149.5,308.4609,145.5,304.4609" style="stroke: #A80036; stroke-width: 1.0;"/><line style="stroke: #A80036; stroke-width: 1.0; stroke-dasharray: 2.0,2.0;" x1="143.5" x2="571" y1="304.4609" y2="304.4609"/><polygon fill="#A80036" points="14,321.4609,4,325.4609,14,329.4609,10,325.4609" style="stroke: #A80036; stroke-width: 1.0;"/><line style="stroke: #A80036; stroke-width: 1.0; stroke-dasharray: 2.0,2.0;" x1="8" x2="137.5" y1="325.4609" y2="325.4609"/><!--
@startuml
title ComponentConfiguration::Resolve
skinparam ParticipantPadding 20
skinparam BoxPadding 10
skinparam shadowing false
skinparam sequenceGroupBorderThickness 1
[-> ComponentConfiguration:Resolve
loop for each dependencyManager
ComponentConfiguration->ReferenceManager: IsSatisfied
ReferenceManager- ->ComponentConfiguration: true/false
end
alt all dependencies satisfied
ComponentConfiguration->UnsatisfiedReferenceState: Register(this)
activate UnsatisfiedReferenceState
note right of UnsatisfiedReferenceState 
          see the sequence diagram for 
          UnsatisfiedReferenceState::Register
end note
UnsatisfiedReferenceState- ->ComponentConfiguration:
deactivate UnsatisfiedReferenceState
end
[<- - ComponentConfiguration:
deactivate ComponentConfiguration
@enduml

PlantUML version 1.2017.20(Mon Dec 11 11:57:05 EST 2017)
(GPL source distribution)
Java Runtime: Java(TM) SE Runtime Environment
JVM: Java HotSpot(TM) 64-Bit Server VM
Java Version: 1.8.0_151-b12
Operating System: Mac OS X
OS Version: 10.12.6
Default Encoding: UTF-8
Language: en
Country: US
--></g></svg>