<?xml version="1.0" encoding="UTF-8" standalone="no"?><svg xmlns="http://www.w3.org/2000/svg" xmlns:xlink="http://www.w3.org/1999/xlink" contentScriptType="application/ecmascript" contentStyleType="text/css" height="751px" preserveAspectRatio="none" style="width:956px;height:751px;" version="1.1" viewBox="0 0 956 751" width="956px" zoomAndPan="magnify"><defs/><g><text fill="#000000" font-family="sans-serif" font-size="14" font-weight="bold" lengthAdjust="spacingAndGlyphs" textLength="238" x="359.5" y="23.5352">ReferenceManager::AddingService</text><rect fill="#FFFFFF" height="572.9238" style="stroke: #A80036; stroke-width: 1.0;" width="10" x="111" y="112.4648"/><rect fill="#FFFFFF" height="108.2422" style="stroke: #A80036; stroke-width: 1.0;" width="10" x="403" y="250.707"/><rect fill="#FFFFFF" height="108.2422" style="stroke: #A80036; stroke-width: 1.0;" width="10" x="403" y="402.9043"/><rect fill="#FFFFFF" height="57.6211" style="stroke: #A80036; stroke-width: 1.0;" width="10" x="403" y="597.7676"/><rect fill="#FFFFFF" height="64.9316" style="stroke: #A80036; stroke-width: 1.0;" width="10" x="676.5" y="280.0176"/><rect fill="#FFFFFF" height="64.9316" style="stroke: #A80036; stroke-width: 1.0;" width="10" x="676.5" y="432.2148"/><rect fill="#FFFFFF" height="14.3105" style="stroke: #A80036; stroke-width: 1.0;" width="10" x="676.5" y="627.0781"/><rect fill="#FFFFFF" height="493.3027" style="stroke: #000000; stroke-width: 1.0;" width="929" x="15" y="170.0859"/><rect fill="#FFFFFF" height="296.4395" style="stroke: none; stroke-width: 1.0;" width="929" x="15" y="366.9492"/><line style="stroke: #A80036; stroke-width: 1.0; stroke-dasharray: 5.0,5.0;" x1="116" x2="116" y1="81.4648" y2="694.3887"/><line style="stroke: #A80036; stroke-width: 1.0; stroke-dasharray: 5.0,5.0;" x1="407.5" x2="407.5" y1="81.4648" y2="694.3887"/><line style="stroke: #A80036; stroke-width: 1.0; stroke-dasharray: 5.0,5.0;" x1="681.5" x2="681.5" y1="81.4648" y2="694.3887"/><rect fill="#FEFECE" height="30.4883" style="stroke: #A80036; stroke-width: 1.5;" width="142" x="45" y="49.9766"/><text fill="#000000" font-family="sans-serif" font-size="14" lengthAdjust="spacingAndGlyphs" textLength="128" x="52" y="70.5117">ReferenceManager</text><rect fill="#FEFECE" height="30.4883" style="stroke: #A80036; stroke-width: 1.5;" width="142" x="45" y="693.3887"/><text fill="#000000" font-family="sans-serif" font-size="14" lengthAdjust="spacingAndGlyphs" textLength="128" x="52" y="713.9238">ReferenceManager</text><rect fill="#FEFECE" height="30.4883" style="stroke: #A80036; stroke-width: 1.5;" width="191" x="312.5" y="49.9766"/><text fill="#000000" font-family="sans-serif" font-size="14" lengthAdjust="spacingAndGlyphs" textLength="177" x="319.5" y="70.5117">ComponentConfiguration</text><rect fill="#FEFECE" height="30.4883" style="stroke: #A80036; stroke-width: 1.5;" width="191" x="312.5" y="693.3887"/><text fill="#000000" font-family="sans-serif" font-size="14" lengthAdjust="spacingAndGlyphs" textLength="177" x="319.5" y="713.9238">ComponentConfiguration</text><rect fill="#FEFECE" height="46.9766" style="stroke: #A80036; stroke-width: 1.5;" width="256" x="553.5" y="33.4883"/><text fill="#000000" font-family="sans-serif" font-size="14" lengthAdjust="spacingAndGlyphs" textLength="242" x="560.5" y="54.0234">ComponentConfigurationBaseState</text><text fill="#000000" font-family="sans-serif" font-size="14" lengthAdjust="spacingAndGlyphs" textLength="65" x="649" y="70.5117">{abstract}</text><rect fill="#FEFECE" height="46.9766" style="stroke: #A80036; stroke-width: 1.5;" width="256" x="553.5" y="693.3887"/><text fill="#000000" font-family="sans-serif" font-size="14" lengthAdjust="spacingAndGlyphs" textLength="242" x="560.5" y="713.9238">ComponentConfigurationBaseState</text><text fill="#000000" font-family="sans-serif" font-size="14" lengthAdjust="spacingAndGlyphs" textLength="65" x="649" y="730.4121">{abstract}</text><rect fill="#FFFFFF" height="572.9238" style="stroke: #A80036; stroke-width: 1.0;" width="10" x="111" y="112.4648"/><rect fill="#FFFFFF" height="108.2422" style="stroke: #A80036; stroke-width: 1.0;" width="10" x="403" y="250.707"/><rect fill="#FFFFFF" height="108.2422" style="stroke: #A80036; stroke-width: 1.0;" width="10" x="403" y="402.9043"/><rect fill="#FFFFFF" height="57.6211" style="stroke: #A80036; stroke-width: 1.0;" width="10" x="403" y="597.7676"/><rect fill="#FFFFFF" height="64.9316" style="stroke: #A80036; stroke-width: 1.0;" width="10" x="676.5" y="280.0176"/><rect fill="#FFFFFF" height="64.9316" style="stroke: #A80036; stroke-width: 1.0;" width="10" x="676.5" y="432.2148"/><rect fill="#FFFFFF" height="14.3105" style="stroke: #A80036; stroke-width: 1.0;" width="10" x="676.5" y="627.0781"/><polygon fill="#A80036" points="99,108.4648,109,112.4648,99,116.4648,103,112.4648" style="stroke: #A80036; stroke-width: 1.0;"/><line style="stroke: #A80036; stroke-width: 1.0;" x1="3" x2="105" y1="112.4648" y2="112.4648"/><text fill="#000000" font-family="sans-serif" font-size="13" lengthAdjust="spacingAndGlyphs" textLength="89" x="10" y="108.0332">AddingService</text><line style="stroke: #A80036; stroke-width: 1.0;" x1="121" x2="163" y1="142.0859" y2="142.0859"/><line style="stroke: #A80036; stroke-width: 1.0;" x1="163" x2="163" y1="142.0859" y2="155.0859"/><line style="stroke: #A80036; stroke-width: 1.0;" x1="122" x2="163" y1="155.0859" y2="155.0859"/><polygon fill="#A80036" points="132,151.0859,122,155.0859,132,159.0859,128,155.0859" style="stroke: #A80036; stroke-width: 1.0;"/><text fill="#000000" font-family="sans-serif" font-size="13" lengthAdjust="spacingAndGlyphs" textLength="248" x="128" y="137.3438">Add service reference to matched list &#128274;</text><rect fill="none" height="493.3027" style="stroke: #000000; stroke-width: 1.0;" width="929" x="15" y="170.0859"/><polygon fill="#EEEEEE" points="15,170.0859,82,170.0859,82,177.0859,72,187.0859,15,187.0859,15,170.0859" style="stroke: #000000; stroke-width: 1.0;"/><text fill="#000000" font-family="sans-serif" font-size="13" font-weight="bold" lengthAdjust="spacingAndGlyphs" textLength="22" x="30" y="183.6543">opt</text><text fill="#000000" font-family="sans-serif" font-size="11" font-weight="bold" lengthAdjust="spacingAndGlyphs" textLength="172" x="97" y="182.7207">[cardinality becomes satisfied]</text><line style="stroke: #A80036; stroke-width: 1.0;" x1="121" x2="163" y1="208.707" y2="208.707"/><line style="stroke: #A80036; stroke-width: 1.0;" x1="163" x2="163" y1="208.707" y2="221.707"/><line style="stroke: #A80036; stroke-width: 1.0;" x1="122" x2="163" y1="221.707" y2="221.707"/><polygon fill="#A80036" points="132,217.707,122,221.707,132,225.707,128,221.707" style="stroke: #A80036; stroke-width: 1.0;"/><text fill="#000000" font-family="sans-serif" font-size="13" lengthAdjust="spacingAndGlyphs" textLength="234" x="128" y="203.9648">Add service reference to bound list &#128274;</text><polygon fill="#A80036" points="391,246.707,401,250.707,391,254.707,395,250.707" style="stroke: #A80036; stroke-width: 1.0;"/><line style="stroke: #A80036; stroke-width: 1.0;" x1="121" x2="397" y1="250.707" y2="250.707"/><text fill="#000000" font-family="sans-serif" font-size="13" lengthAdjust="spacingAndGlyphs" textLength="48" x="128" y="246.2754">Resolve</text><polygon fill="#A80036" points="664.5,276.0176,674.5,280.0176,664.5,284.0176,668.5,280.0176" style="stroke: #A80036; stroke-width: 1.0;"/><line style="stroke: #A80036; stroke-width: 1.0;" x1="413" x2="670.5" y1="280.0176" y2="280.0176"/><text fill="#000000" font-family="sans-serif" font-size="13" lengthAdjust="spacingAndGlyphs" textLength="51" x="420" y="275.5859">Register</text><polygon fill="#FBFB77" points="691,293.3281,691,333.3281,934,333.3281,934,303.3281,924,293.3281,691,293.3281" style="stroke: #A80036; stroke-width: 1.0;"/><line style="stroke: #A80036; stroke-width: 1.0;" x1="924" x2="924" y1="293.3281" y2="303.3281"/><line style="stroke: #A80036; stroke-width: 1.0;" x1="934" x2="924" y1="303.3281" y2="303.3281"/><text fill="#000000" font-family="sans-serif" font-size="13" lengthAdjust="spacingAndGlyphs" textLength="185" x="697" y="310.8965">see the sequence diagram for</text><text fill="#000000" font-family="sans-serif" font-size="13" lengthAdjust="spacingAndGlyphs" textLength="222" x="697" y="326.207">UnsatisfiedReferenceState::Register</text><polygon fill="#A80036" points="424,340.9492,414,344.9492,424,348.9492,420,344.9492" style="stroke: #A80036; stroke-width: 1.0;"/><line style="stroke: #A80036; stroke-width: 1.0; stroke-dasharray: 2.0,2.0;" x1="418" x2="680.5" y1="344.9492" y2="344.9492"/><polygon fill="#A80036" points="132,354.9492,122,358.9492,132,362.9492,128,358.9492" style="stroke: #A80036; stroke-width: 1.0;"/><line style="stroke: #A80036; stroke-width: 1.0; stroke-dasharray: 2.0,2.0;" x1="126" x2="407" y1="358.9492" y2="358.9492"/><line style="stroke: #000000; stroke-width: 1.0; stroke-dasharray: 2.0,2.0;" x1="15" x2="944" y1="367.9492" y2="367.9492"/><text fill="#000000" font-family="sans-serif" font-size="11" font-weight="bold" lengthAdjust="spacingAndGlyphs" textLength="510" x="20" y="378.584">[cardinality stays satisfied. policy option is GREEDY and the new service is a better match]</text><polygon fill="#A80036" points="391,398.9043,401,402.9043,391,406.9043,395,402.9043" style="stroke: #A80036; stroke-width: 1.0;"/><line style="stroke: #A80036; stroke-width: 1.0;" x1="121" x2="397" y1="402.9043" y2="402.9043"/><text fill="#000000" font-family="sans-serif" font-size="13" lengthAdjust="spacingAndGlyphs" textLength="66" x="128" y="398.4727">Deactivate</text><polygon fill="#A80036" points="664.5,428.2148,674.5,432.2148,664.5,436.2148,668.5,432.2148" style="stroke: #A80036; stroke-width: 1.0;"/><line style="stroke: #A80036; stroke-width: 1.0;" x1="413" x2="670.5" y1="432.2148" y2="432.2148"/><text fill="#000000" font-family="sans-serif" font-size="13" lengthAdjust="spacingAndGlyphs" textLength="66" x="420" y="427.7832">Deactivate</text><polygon fill="#FBFB77" points="691,445.5254,691,485.5254,901,485.5254,901,455.5254,891,445.5254,691,445.5254" style="stroke: #A80036; stroke-width: 1.0;"/><line style="stroke: #A80036; stroke-width: 1.0;" x1="891" x2="891" y1="445.5254" y2="455.5254"/><line style="stroke: #A80036; stroke-width: 1.0;" x1="901" x2="891" y1="455.5254" y2="455.5254"/><text fill="#000000" font-family="sans-serif" font-size="13" lengthAdjust="spacingAndGlyphs" textLength="185" x="697" y="463.0938">see the sequence diagram for</text><text fill="#000000" font-family="sans-serif" font-size="13" lengthAdjust="spacingAndGlyphs" textLength="159" x="697" y="478.4043">SatisfiedState::Deactivate</text><polygon fill="#A80036" points="424,493.1465,414,497.1465,424,501.1465,420,497.1465" style="stroke: #A80036; stroke-width: 1.0;"/><line style="stroke: #A80036; stroke-width: 1.0; stroke-dasharray: 2.0,2.0;" x1="418" x2="680.5" y1="497.1465" y2="497.1465"/><polygon fill="#A80036" points="132,507.1465,122,511.1465,132,515.1465,128,511.1465" style="stroke: #A80036; stroke-width: 1.0;"/><line style="stroke: #A80036; stroke-width: 1.0; stroke-dasharray: 2.0,2.0;" x1="126" x2="407" y1="511.1465" y2="511.1465"/><line style="stroke: #A80036; stroke-width: 1.0;" x1="121" x2="163" y1="555.7676" y2="555.7676"/><line style="stroke: #A80036; stroke-width: 1.0;" x1="163" x2="163" y1="555.7676" y2="568.7676"/><line style="stroke: #A80036; stroke-width: 1.0;" x1="122" x2="163" y1="568.7676" y2="568.7676"/><polygon fill="#A80036" points="132,564.7676,122,568.7676,132,572.7676,128,568.7676" style="stroke: #A80036; stroke-width: 1.0;"/><text fill="#000000" font-family="sans-serif" font-size="13" lengthAdjust="spacingAndGlyphs" textLength="250" x="128" y="535.7148">Swap lowest ranked service reference in</text><text fill="#000000" font-family="sans-serif" font-size="13" lengthAdjust="spacingAndGlyphs" textLength="268" x="128" y="551.0254">bound list with the new service reference&#128274;</text><polygon fill="#A80036" points="391,593.7676,401,597.7676,391,601.7676,395,597.7676" style="stroke: #A80036; stroke-width: 1.0;"/><line style="stroke: #A80036; stroke-width: 1.0;" x1="121" x2="397" y1="597.7676" y2="597.7676"/><text fill="#000000" font-family="sans-serif" font-size="13" lengthAdjust="spacingAndGlyphs" textLength="48" x="128" y="593.3359">Resolve</text><polygon fill="#A80036" points="664.5,623.0781,674.5,627.0781,664.5,631.0781,668.5,627.0781" style="stroke: #A80036; stroke-width: 1.0;"/><line style="stroke: #A80036; stroke-width: 1.0;" x1="413" x2="670.5" y1="627.0781" y2="627.0781"/><text fill="#000000" font-family="sans-serif" font-size="13" lengthAdjust="spacingAndGlyphs" textLength="51" x="420" y="622.6465">Register</text><polygon fill="#A80036" points="424,637.3887,414,641.3887,424,645.3887,420,641.3887" style="stroke: #A80036; stroke-width: 1.0;"/><line style="stroke: #A80036; stroke-width: 1.0; stroke-dasharray: 2.0,2.0;" x1="418" x2="680.5" y1="641.3887" y2="641.3887"/><polygon fill="#A80036" points="132,651.3887,122,655.3887,132,659.3887,128,655.3887" style="stroke: #A80036; stroke-width: 1.0;"/><line style="stroke: #A80036; stroke-width: 1.0; stroke-dasharray: 2.0,2.0;" x1="126" x2="407" y1="655.3887" y2="655.3887"/><polygon fill="#A80036" points="14,672.3887,4,676.3887,14,680.3887,10,676.3887" style="stroke: #A80036; stroke-width: 1.0;"/><line style="stroke: #A80036; stroke-width: 1.0;" x1="8" x2="110" y1="676.3887" y2="676.3887"/><!--
@startuml
title ReferenceManager::AddingService
skinparam ParticipantPadding 20
skinparam BoxPadding 10
skinparam shadowing false
skinparam sequenceGroupBorderThickness 1
participant ReferenceManager
participant ComponentConfiguration
participant "ComponentConfigurationBaseState\n{abstract}" as ComponentConfigurationBaseState
[->ReferenceManager : AddingService
activate ReferenceManager
ReferenceManager->ReferenceManager : Add service reference to matched list 🔒
opt cardinality becomes satisfied
ReferenceManager->ReferenceManager : Add service reference to bound list 🔒
ReferenceManager->ComponentConfiguration : Resolve
activate ComponentConfiguration
ComponentConfiguration -> ComponentConfigurationBaseState : Register
activate ComponentConfigurationBaseState
note right of ComponentConfigurationBaseState 
          see the sequence diagram for 
          UnsatisfiedReferenceState::Register
end note
ComponentConfigurationBaseState - -> ComponentConfiguration:
deactivate ComponentConfigurationBaseState
ComponentConfiguration - -> ReferenceManager:
deactivate ComponentConfiguration
else cardinality stays satisfied. policy option is GREEDY and the new service is a better match
ReferenceManager->ComponentConfiguration : Deactivate
activate ComponentConfiguration
ComponentConfiguration ->ComponentConfigurationBaseState : Deactivate
activate ComponentConfigurationBaseState
note right of ComponentConfigurationBaseState 
          see the sequence diagram for 
          SatisfiedState::Deactivate
end note
ComponentConfigurationBaseState - -> ComponentConfiguration :
deactivate ComponentConfigurationBaseState
ComponentConfiguration- -> ReferenceManager:
deactivate ComponentConfiguration
ReferenceManager->ReferenceManager : Swap lowest ranked service reference in \nbound list with the new service reference🔒
ReferenceManager->ComponentConfiguration : Resolve
activate ComponentConfiguration
ComponentConfiguration -> ComponentConfigurationBaseState : Register
activate ComponentConfigurationBaseState
ComponentConfigurationBaseState - -> ComponentConfiguration:
deactivate ComponentConfigurationBaseState
ComponentConfiguration - -> ReferenceManager:
deactivate ComponentConfiguration
end
[<-ReferenceManager:
@enduml

PlantUML version 1.2017.20(Mon Dec 11 11:57:05 EST 2017)
(GPL source distribution)
Java Runtime: Java(TM) SE Runtime Environment
JVM: Java HotSpot(TM) 64-Bit Server VM
Java Version: 1.8.0_151-b12
Operating System: Mac OS X
OS Version: 10.12.6
Default Encoding: UTF-8
Language: en
Country: US
--></g></svg>