<?xml version="1.0" encoding="UTF-8" standalone="no"?><svg xmlns="http://www.w3.org/2000/svg" xmlns:xlink="http://www.w3.org/1999/xlink" contentScriptType="application/ecmascript" contentStyleType="text/css" height="1067px" preserveAspectRatio="none" style="width:1824px;height:1067px;" version="1.1" viewBox="0 0 1824 1067" width="1824px" zoomAndPan="magnify"><defs/><g><text fill="#000000" font-family="sans-serif" font-size="14" font-weight="bold" lengthAdjust="spacingAndGlyphs" textLength="183" x="821" y="23.5352">SatisfiedState::DoActivate</text><rect fill="#E9E9F9" height="1021.6035" style="stroke: #A80036; stroke-width: 1.0;" width="407.5" x="1398.5" y="34.4883"/><text fill="#000000" font-family="sans-serif" font-size="13" font-weight="bold" lengthAdjust="spacingAndGlyphs" textLength="91" x="1556.75" y="47.0566">Client bundle</text><rect fill="#FFFFFF" height="29.3105" style="stroke: #A80036; stroke-width: 1.0;" width="10" x="351" y="867.5625"/><rect fill="#FFFFFF" height="834.0293" style="stroke: #A80036; stroke-width: 1.0;" width="10" x="555.5" y="162.0859"/><rect fill="#FFFFFF" height="108.2422" style="stroke: #A80036; stroke-width: 1.0;" width="10" x="560.5" y="223.707"/><rect fill="#FFFFFF" height="101.9316" style="stroke: #A80036; stroke-width: 1.0;" width="10" x="842.5" y="489.502"/><rect fill="#FFFFFF" height="14.3105" style="stroke: #A80036; stroke-width: 1.0;" width="10" x="1053.5" y="548.123"/><rect fill="#FFFFFF" height="29.3105" style="stroke: #A80036; stroke-width: 1.0;" width="10" x="1205.5" y="258.0176"/><rect fill="#FFFFFF" height="220.1738" style="stroke: #A80036; stroke-width: 1.0;" width="10" x="1508.5" y="435.8809"/><rect fill="#FFFFFF" height="14.3105" style="stroke: #A80036; stroke-width: 1.0;" width="10" x="1723.5" y="627.7441"/><rect fill="#FFFFFF" height="14.3105" style="stroke: #A80036; stroke-width: 1.0;" width="10" x="1723.5" y="743.6758"/><rect fill="#FFFFFF" height="147.5527" style="stroke: #000000; stroke-width: 1.0;" width="836.5" x="435" y="177.3965"/><rect fill="#FFFFFF" height="441.9922" style="stroke: #000000; stroke-width: 1.0;" width="1701" x="111" y="397.5703"/><rect fill="#FFFFFF" height="148.5527" style="stroke: #000000; stroke-width: 1.0;" width="1199.5" x="435" y="451.1914"/><rect fill="#FFFFFF" height="73.5762" style="stroke: none; stroke-width: 1.0;" width="1701" x="111" y="765.9863"/><rect fill="#FFFFFF" height="46.6211" style="stroke: #000000; stroke-width: 1.0;" width="575" x="111" y="912.1836"/><line style="stroke: #A80036; stroke-width: 1.0; stroke-dasharray: 5.0,5.0;" x1="194" x2="194" y1="101.7754" y2="1005.1152"/><line style="stroke: #A80036; stroke-width: 1.0; stroke-dasharray: 5.0,5.0;" x1="356" x2="356" y1="101.7754" y2="1005.1152"/><line style="stroke: #A80036; stroke-width: 1.0; stroke-dasharray: 5.0,5.0;" x1="560" x2="560" y1="101.7754" y2="1005.1152"/><line style="stroke: #A80036; stroke-width: 1.0; stroke-dasharray: 5.0,5.0;" x1="847.5" x2="847.5" y1="101.7754" y2="1005.1152"/><line style="stroke: #A80036; stroke-width: 1.0; stroke-dasharray: 5.0,5.0;" x1="1058.5" x2="1058.5" y1="101.7754" y2="1005.1152"/><line style="stroke: #A80036; stroke-width: 1.0; stroke-dasharray: 5.0,5.0;" x1="1210.5" x2="1210.5" y1="101.7754" y2="1005.1152"/><line style="stroke: #A80036; stroke-width: 1.0; stroke-dasharray: 5.0,5.0;" x1="1326.5" x2="1326.5" y1="101.7754" y2="1005.1152"/><line style="stroke: #A80036; stroke-width: 1.0; stroke-dasharray: 5.0,5.0;" x1="1513.5" x2="1513.5" y1="101.7754" y2="1005.1152"/><line style="stroke: #A80036; stroke-width: 1.0; stroke-dasharray: 5.0,5.0;" x1="1728" x2="1728" y1="101.7754" y2="1005.1152"/><rect fill="#FEFECE" height="30.4883" style="stroke: #A80036; stroke-width: 1.5;" width="106" x="141" y="70.2871"/><text fill="#000000" font-family="sans-serif" font-size="14" lengthAdjust="spacingAndGlyphs" textLength="92" x="148" y="90.8223">SatisfiedState</text><rect fill="#FEFECE" height="30.4883" style="stroke: #A80036; stroke-width: 1.5;" width="106" x="141" y="1004.1152"/><text fill="#000000" font-family="sans-serif" font-size="14" lengthAdjust="spacingAndGlyphs" textLength="92" x="148" y="1024.6504">SatisfiedState</text><rect fill="#FEFECE" height="30.4883" style="stroke: #A80036; stroke-width: 1.5;" width="118" x="297" y="70.2871"/><text fill="#000000" font-family="sans-serif" font-size="14" lengthAdjust="spacingAndGlyphs" textLength="104" x="304" y="90.8223">TransitionState</text><rect fill="#FEFECE" height="30.4883" style="stroke: #A80036; stroke-width: 1.5;" width="118" x="297" y="1004.1152"/><text fill="#000000" font-family="sans-serif" font-size="14" lengthAdjust="spacingAndGlyphs" textLength="104" x="304" y="1024.6504">TransitionState</text><rect fill="#FEFECE" height="30.4883" style="stroke: #A80036; stroke-width: 1.5;" width="191" x="465" y="70.2871"/><text fill="#000000" font-family="sans-serif" font-size="14" lengthAdjust="spacingAndGlyphs" textLength="177" x="472" y="90.8223">ComponentConfiguration</text><rect fill="#FEFECE" height="30.4883" style="stroke: #A80036; stroke-width: 1.5;" width="191" x="465" y="1004.1152"/><text fill="#000000" font-family="sans-serif" font-size="14" lengthAdjust="spacingAndGlyphs" textLength="177" x="472" y="1024.6504">ComponentConfiguration</text><rect fill="#FEFECE" height="30.4883" style="stroke: #A80036; stroke-width: 1.5;" width="180" x="757.5" y="70.2871"/><text fill="#000000" font-family="sans-serif" font-size="14" lengthAdjust="spacingAndGlyphs" textLength="166" x="764.5" y="90.8223">ComponentContextImpl</text><rect fill="#FEFECE" height="30.4883" style="stroke: #A80036; stroke-width: 1.5;" width="180" x="757.5" y="1004.1152"/><text fill="#000000" font-family="sans-serif" font-size="14" lengthAdjust="spacingAndGlyphs" textLength="166" x="764.5" y="1024.6504">ComponentContextImpl</text><rect fill="#FEFECE" height="30.4883" style="stroke: #A80036; stroke-width: 1.5;" width="142" x="987.5" y="70.2871"/><text fill="#000000" font-family="sans-serif" font-size="14" lengthAdjust="spacingAndGlyphs" textLength="128" x="994.5" y="90.8223">ReferenceManager</text><rect fill="#FEFECE" height="30.4883" style="stroke: #A80036; stroke-width: 1.5;" width="142" x="987.5" y="1004.1152"/><text fill="#000000" font-family="sans-serif" font-size="14" lengthAdjust="spacingAndGlyphs" textLength="128" x="994.5" y="1024.6504">ReferenceManager</text><rect fill="#FEFECE" height="30.4883" style="stroke: #A80036; stroke-width: 1.5;" width="62" x="1179.5" y="70.2871"/><text fill="#000000" font-family="sans-serif" font-size="14" lengthAdjust="spacingAndGlyphs" textLength="48" x="1186.5" y="90.8223">System</text><rect fill="#FEFECE" height="30.4883" style="stroke: #A80036; stroke-width: 1.5;" width="62" x="1179.5" y="1004.1152"/><text fill="#000000" font-family="sans-serif" font-size="14" lengthAdjust="spacingAndGlyphs" textLength="48" x="1186.5" y="1024.6504">System</text><rect fill="#FEFECE" height="46.9766" style="stroke: #A80036; stroke-width: 1.5;" width="71" x="1291.5" y="53.7988"/><text fill="#000000" font-family="sans-serif" font-size="14" lengthAdjust="spacingAndGlyphs" textLength="48" x="1303" y="74.334">Logger</text><text fill="#000000" font-family="sans-serif" font-size="14" lengthAdjust="spacingAndGlyphs" textLength="57" x="1298.5" y="90.8223">(service)</text><rect fill="#FEFECE" height="46.9766" style="stroke: #A80036; stroke-width: 1.5;" width="71" x="1291.5" y="1004.1152"/><text fill="#000000" font-family="sans-serif" font-size="14" lengthAdjust="spacingAndGlyphs" textLength="48" x="1303" y="1024.6504">Logger</text><text fill="#000000" font-family="sans-serif" font-size="14" lengthAdjust="spacingAndGlyphs" textLength="57" x="1298.5" y="1041.1387">(service)</text><rect fill="#FEFECE" height="46.9766" style="stroke: #A80036; stroke-width: 1.5;" width="182" x="1422.5" y="53.7988"/><text fill="#000000" font-family="sans-serif" font-size="14" lengthAdjust="spacingAndGlyphs" textLength="168" x="1429.5" y="74.334">ComponentInstanceImpl</text><text fill="#000000" font-family="sans-serif" font-size="14" lengthAdjust="spacingAndGlyphs" textLength="111" x="1458" y="90.8223">(autogenerated)</text><rect fill="#FEFECE" height="46.9766" style="stroke: #A80036; stroke-width: 1.5;" width="182" x="1422.5" y="1004.1152"/><text fill="#000000" font-family="sans-serif" font-size="14" lengthAdjust="spacingAndGlyphs" textLength="168" x="1429.5" y="1024.6504">ComponentInstanceImpl</text><text fill="#000000" font-family="sans-serif" font-size="14" lengthAdjust="spacingAndGlyphs" textLength="111" x="1458" y="1041.1387">(autogenerated)</text><rect fill="#FEFECE" height="46.9766" style="stroke: #A80036; stroke-width: 1.5;" width="107" x="1675" y="53.7988"/><text fill="#000000" font-family="sans-serif" font-size="14" lengthAdjust="spacingAndGlyphs" textLength="78" x="1689.5" y="74.334">ServiceImpl</text><text fill="#000000" font-family="sans-serif" font-size="14" lengthAdjust="spacingAndGlyphs" textLength="93" x="1682" y="90.8223">(handwritten)</text><rect fill="#FEFECE" height="46.9766" style="stroke: #A80036; stroke-width: 1.5;" width="107" x="1675" y="1004.1152"/><text fill="#000000" font-family="sans-serif" font-size="14" lengthAdjust="spacingAndGlyphs" textLength="78" x="1689.5" y="1024.6504">ServiceImpl</text><text fill="#000000" font-family="sans-serif" font-size="14" lengthAdjust="spacingAndGlyphs" textLength="93" x="1682" y="1041.1387">(handwritten)</text><rect fill="#FFFFFF" height="29.3105" style="stroke: #A80036; stroke-width: 1.0;" width="10" x="351" y="867.5625"/><rect fill="#FFFFFF" height="834.0293" style="stroke: #A80036; stroke-width: 1.0;" width="10" x="555.5" y="162.0859"/><rect fill="#FFFFFF" height="108.2422" style="stroke: #A80036; stroke-width: 1.0;" width="10" x="560.5" y="223.707"/><rect fill="#FFFFFF" height="101.9316" style="stroke: #A80036; stroke-width: 1.0;" width="10" x="842.5" y="489.502"/><rect fill="#FFFFFF" height="14.3105" style="stroke: #A80036; stroke-width: 1.0;" width="10" x="1053.5" y="548.123"/><rect fill="#FFFFFF" height="29.3105" style="stroke: #A80036; stroke-width: 1.0;" width="10" x="1205.5" y="258.0176"/><rect fill="#FFFFFF" height="220.1738" style="stroke: #A80036; stroke-width: 1.0;" width="10" x="1508.5" y="435.8809"/><rect fill="#FFFFFF" height="14.3105" style="stroke: #A80036; stroke-width: 1.0;" width="10" x="1723.5" y="627.7441"/><rect fill="#FFFFFF" height="14.3105" style="stroke: #A80036; stroke-width: 1.0;" width="10" x="1723.5" y="743.6758"/><polygon fill="#A80036" points="182,128.7754,192,132.7754,182,136.7754,186,132.7754" style="stroke: #A80036; stroke-width: 1.0;"/><line style="stroke: #A80036; stroke-width: 1.0;" x1="3" x2="188" y1="132.7754" y2="132.7754"/><text fill="#000000" font-family="sans-serif" font-size="13" lengthAdjust="spacingAndGlyphs" textLength="69" x="10" y="128.3438">DoActivate</text><polygon fill="#A80036" points="543.5,158.0859,553.5,162.0859,543.5,166.0859,547.5,162.0859" style="stroke: #A80036; stroke-width: 1.0;"/><line style="stroke: #A80036; stroke-width: 1.0;" x1="194" x2="549.5" y1="162.0859" y2="162.0859"/><text fill="#000000" font-family="sans-serif" font-size="13" lengthAdjust="spacingAndGlyphs" textLength="217" x="201" y="157.6543">CreateComponentInstanceWrapper</text><rect fill="none" height="147.5527" style="stroke: #000000; stroke-width: 1.0;" width="836.5" x="435" y="177.3965"/><polygon fill="#EEEEEE" points="435,177.3965,497,177.3965,497,184.3965,487,194.3965,435,194.3965,435,177.3965" style="stroke: #000000; stroke-width: 1.0;"/><text fill="#000000" font-family="sans-serif" font-size="13" font-weight="bold" lengthAdjust="spacingAndGlyphs" textLength="17" x="450" y="190.9648">alt</text><text fill="#000000" font-family="sans-serif" font-size="11" font-weight="bold" lengthAdjust="spacingAndGlyphs" textLength="181" x="512" y="190.0313">[if function pointers are nullptr]</text><line style="stroke: #A80036; stroke-width: 1.0;" x1="565.5" x2="612.5" y1="211.0176" y2="211.0176"/><line style="stroke: #A80036; stroke-width: 1.0;" x1="612.5" x2="612.5" y1="211.0176" y2="224.0176"/><line style="stroke: #A80036; stroke-width: 1.0;" x1="571.5" x2="612.5" y1="224.0176" y2="224.0176"/><polygon fill="#A80036" points="581.5,220.0176,571.5,224.0176,581.5,228.0176,577.5,224.0176" style="stroke: #A80036; stroke-width: 1.0;"/><text fill="#000000" font-family="sans-serif" font-size="13" lengthAdjust="spacingAndGlyphs" textLength="212" x="577.5" y="206.2754">LoadBundleBinary using call_once</text><polygon fill="#A80036" points="1193.5,254.0176,1203.5,258.0176,1193.5,262.0176,1197.5,258.0176" style="stroke: #A80036; stroke-width: 1.0;"/><line style="stroke: #A80036; stroke-width: 1.0;" x1="570.5" x2="1199.5" y1="258.0176" y2="258.0176"/><text fill="#000000" font-family="sans-serif" font-size="13" lengthAdjust="spacingAndGlyphs" textLength="73" x="577.5" y="253.5859">LoadLibrary</text><polygon fill="#A80036" points="581.5,283.3281,571.5,287.3281,581.5,291.3281,577.5,287.3281" style="stroke: #A80036; stroke-width: 1.0;"/><line style="stroke: #A80036; stroke-width: 1.0;" x1="575.5" x2="1209.5" y1="287.3281" y2="287.3281"/><text fill="#000000" font-family="sans-serif" font-size="13" lengthAdjust="spacingAndGlyphs" textLength="56" x="587.5" y="282.8965">mHandle</text><polygon fill="#A80036" points="1198.5,312.6387,1208.5,316.6387,1198.5,320.6387,1202.5,316.6387" style="stroke: #A80036; stroke-width: 1.0;"/><line style="stroke: #A80036; stroke-width: 1.0;" x1="570.5" x2="1204.5" y1="316.6387" y2="316.6387"/><text fill="#000000" font-family="sans-serif" font-size="13" lengthAdjust="spacingAndGlyphs" textLength="251" x="577.5" y="312.207">use dlsym to find the symbol addresses</text><polygon fill="#A80036" points="1501.5,348.9492,1511.5,352.9492,1501.5,356.9492,1505.5,352.9492" style="stroke: #A80036; stroke-width: 1.0;"/><line style="stroke: #A80036; stroke-width: 1.0;" x1="565.5" x2="1507.5" y1="352.9492" y2="352.9492"/><text fill="#000000" font-family="sans-serif" font-size="13" lengthAdjust="spacingAndGlyphs" textLength="212" x="572.5" y="348.5176">Create using the extern C method</text><polygon fill="#A80036" points="835.5,378.2598,845.5,382.2598,835.5,386.2598,839.5,382.2598" style="stroke: #A80036; stroke-width: 1.0;"/><line style="stroke: #A80036; stroke-width: 1.0;" x1="565.5" x2="841.5" y1="382.2598" y2="382.2598"/><text fill="#000000" font-family="sans-serif" font-size="13" lengthAdjust="spacingAndGlyphs" textLength="40" x="572.5" y="377.8281">Create</text><rect fill="none" height="441.9922" style="stroke: #000000; stroke-width: 1.0;" width="1701" x="111" y="397.5703"/><polygon fill="#EEEEEE" points="111,397.5703,175,397.5703,175,404.5703,165,414.5703,111,414.5703,111,397.5703" style="stroke: #000000; stroke-width: 1.0;"/><text fill="#000000" font-family="sans-serif" font-size="13" font-weight="bold" lengthAdjust="spacingAndGlyphs" textLength="19" x="126" y="411.1387">try</text><polygon fill="#A80036" points="1496.5,431.8809,1506.5,435.8809,1496.5,439.8809,1500.5,435.8809" style="stroke: #A80036; stroke-width: 1.0;"/><line style="stroke: #A80036; stroke-width: 1.0;" x1="565.5" x2="1502.5" y1="435.8809" y2="435.8809"/><text fill="#000000" font-family="sans-serif" font-size="13" lengthAdjust="spacingAndGlyphs" textLength="283" x="572.5" y="431.4492">CreateInstanceAndBindReferences(mContext)</text><rect fill="none" height="148.5527" style="stroke: #000000; stroke-width: 1.0;" width="1199.5" x="435" y="451.1914"/><polygon fill="#EEEEEE" points="435,451.1914,509,451.1914,509,458.1914,499,468.1914,435,468.1914,435,451.1914" style="stroke: #000000; stroke-width: 1.0;"/><text fill="#000000" font-family="sans-serif" font-size="13" font-weight="bold" lengthAdjust="spacingAndGlyphs" textLength="29" x="450" y="464.7598">loop</text><text fill="#000000" font-family="sans-serif" font-size="11" font-weight="bold" lengthAdjust="spacingAndGlyphs" textLength="110" x="524" y="463.8262">[for each reference]</text><polygon fill="#A80036" points="863.5,485.502,853.5,489.502,863.5,493.502,859.5,489.502" style="stroke: #A80036; stroke-width: 1.0;"/><line style="stroke: #A80036; stroke-width: 1.0;" x1="857.5" x2="1507.5" y1="489.502" y2="489.502"/><text fill="#000000" font-family="sans-serif" font-size="13" lengthAdjust="spacingAndGlyphs" textLength="187" x="869.5" y="485.0703">LocateService(referenceName)</text><polygon fill="#A80036" points="576.5,514.8125,566.5,518.8125,576.5,522.8125,572.5,518.8125" style="stroke: #A80036; stroke-width: 1.0;"/><line style="stroke: #A80036; stroke-width: 1.0;" x1="570.5" x2="841.5" y1="518.8125" y2="518.8125"/><text fill="#000000" font-family="sans-serif" font-size="13" lengthAdjust="spacingAndGlyphs" textLength="253" x="582.5" y="514.3809">GetDependencyManager(referenceName)</text><polygon fill="#A80036" points="1041.5,544.123,1051.5,548.123,1041.5,552.123,1045.5,548.123" style="stroke: #A80036; stroke-width: 1.0;"/><line style="stroke: #A80036; stroke-width: 1.0;" x1="852.5" x2="1047.5" y1="548.123" y2="548.123"/><text fill="#000000" font-family="sans-serif" font-size="13" lengthAdjust="spacingAndGlyphs" textLength="112" x="859.5" y="543.6914">GetBoundService()</text><polygon fill="#A80036" points="863.5,558.4336,853.5,562.4336,863.5,566.4336,859.5,562.4336" style="stroke: #A80036; stroke-width: 1.0;"/><line style="stroke: #A80036; stroke-width: 1.0; stroke-dasharray: 2.0,2.0;" x1="857.5" x2="1057.5" y1="562.4336" y2="562.4336"/><polygon fill="#A80036" points="1496.5,587.4336,1506.5,591.4336,1496.5,595.4336,1500.5,591.4336" style="stroke: #A80036; stroke-width: 1.0;"/><line style="stroke: #A80036; stroke-width: 1.0;" x1="847.5" x2="1502.5" y1="591.4336" y2="591.4336"/><text fill="#000000" font-family="sans-serif" font-size="13" lengthAdjust="spacingAndGlyphs" textLength="88" x="854.5" y="587.002">bound Service</text><polygon fill="#A80036" points="1711.5,623.7441,1721.5,627.7441,1711.5,631.7441,1715.5,627.7441" style="stroke: #A80036; stroke-width: 1.0;"/><line style="stroke: #A80036; stroke-width: 1.0;" x1="1518.5" x2="1717.5" y1="627.7441" y2="627.7441"/><text fill="#000000" font-family="sans-serif" font-size="13" lengthAdjust="spacingAndGlyphs" textLength="186" x="1525.5" y="623.3125">Create(bound service objects)</text><polygon fill="#A80036" points="1529.5,638.0547,1519.5,642.0547,1529.5,646.0547,1525.5,642.0547" style="stroke: #A80036; stroke-width: 1.0;"/><line style="stroke: #A80036; stroke-width: 1.0; stroke-dasharray: 2.0,2.0;" x1="1523.5" x2="1727.5" y1="642.0547" y2="642.0547"/><polygon fill="#A80036" points="576.5,652.0547,566.5,656.0547,576.5,660.0547,572.5,656.0547" style="stroke: #A80036; stroke-width: 1.0;"/><line style="stroke: #A80036; stroke-width: 1.0; stroke-dasharray: 2.0,2.0;" x1="570.5" x2="1512.5" y1="656.0547" y2="656.0547"/><polygon fill="#A80036" points="205,681.0547,195,685.0547,205,689.0547,201,685.0547" style="stroke: #A80036; stroke-width: 1.0;"/><line style="stroke: #A80036; stroke-width: 1.0;" x1="199" x2="554.5" y1="685.0547" y2="685.0547"/><text fill="#000000" font-family="sans-serif" font-size="13" lengthAdjust="spacingAndGlyphs" textLength="86" x="211" y="680.623">compWrapper</text><polygon fill="#A80036" points="1501.5,710.3652,1511.5,714.3652,1501.5,718.3652,1505.5,714.3652" style="stroke: #A80036; stroke-width: 1.0;"/><line style="stroke: #A80036; stroke-width: 1.0;" x1="194" x2="1507.5" y1="714.3652" y2="714.3652"/><text fill="#000000" font-family="sans-serif" font-size="13" lengthAdjust="spacingAndGlyphs" textLength="51" x="201" y="709.9336">Activate</text><polygon fill="#A80036" points="1711.5,739.6758,1721.5,743.6758,1711.5,747.6758,1715.5,743.6758" style="stroke: #A80036; stroke-width: 1.0;"/><line style="stroke: #A80036; stroke-width: 1.0;" x1="1513.5" x2="1717.5" y1="743.6758" y2="743.6758"/><text fill="#000000" font-family="sans-serif" font-size="13" lengthAdjust="spacingAndGlyphs" textLength="121" x="1520.5" y="739.2441">Activate(mContext)</text><polygon fill="#A80036" points="1524.5,753.9863,1514.5,757.9863,1524.5,761.9863,1520.5,757.9863" style="stroke: #A80036; stroke-width: 1.0;"/><line style="stroke: #A80036; stroke-width: 1.0; stroke-dasharray: 2.0,2.0;" x1="1518.5" x2="1727.5" y1="757.9863" y2="757.9863"/><line style="stroke: #000000; stroke-width: 1.0; stroke-dasharray: 2.0,2.0;" x1="111" x2="1812" y1="766.9863" y2="766.9863"/><text fill="#000000" font-family="sans-serif" font-size="11" font-weight="bold" lengthAdjust="spacingAndGlyphs" textLength="102" x="116" y="777.6211">[caught exception]</text><polygon fill="#A80036" points="543.5,797.9414,553.5,801.9414,543.5,805.9414,547.5,801.9414" style="stroke: #A80036; stroke-width: 1.0;"/><line style="stroke: #A80036; stroke-width: 1.0;" x1="194" x2="549.5" y1="801.9414" y2="801.9414"/><text fill="#000000" font-family="sans-serif" font-size="13" lengthAdjust="spacingAndGlyphs" textLength="64" x="201" y="797.5098">GetLogger</text><polygon fill="#A80036" points="1315,827.252,1325,831.252,1315,835.252,1319,831.252" style="stroke: #A80036; stroke-width: 1.0;"/><line style="stroke: #A80036; stroke-width: 1.0;" x1="194" x2="1321" y1="831.252" y2="831.252"/><text fill="#000000" font-family="sans-serif" font-size="13" lengthAdjust="spacingAndGlyphs" textLength="86" x="201" y="826.8203">log exception</text><polygon fill="#A80036" points="339,863.5625,349,867.5625,339,871.5625,343,867.5625" style="stroke: #A80036; stroke-width: 1.0;"/><line style="stroke: #A80036; stroke-width: 1.0;" x1="194" x2="345" y1="867.5625" y2="867.5625"/><text fill="#000000" font-family="sans-serif" font-size="13" lengthAdjust="spacingAndGlyphs" textLength="129" x="201" y="863.1309">IsRecursionDetected</text><polygon fill="#A80036" points="205,892.873,195,896.873,205,900.873,201,896.873" style="stroke: #A80036; stroke-width: 1.0;"/><line style="stroke: #A80036; stroke-width: 1.0;" x1="199" x2="355" y1="896.873" y2="896.873"/><text fill="#000000" font-family="sans-serif" font-size="13" lengthAdjust="spacingAndGlyphs" textLength="62" x="211" y="892.4414">true/false</text><rect fill="none" height="46.6211" style="stroke: #000000; stroke-width: 1.0;" width="575" x="111" y="912.1836"/><polygon fill="#EEEEEE" points="111,912.1836,173,912.1836,173,919.1836,163,929.1836,111,929.1836,111,912.1836" style="stroke: #000000; stroke-width: 1.0;"/><text fill="#000000" font-family="sans-serif" font-size="13" font-weight="bold" lengthAdjust="spacingAndGlyphs" textLength="17" x="126" y="925.752">alt</text><text fill="#000000" font-family="sans-serif" font-size="11" font-weight="bold" lengthAdjust="spacingAndGlyphs" textLength="261" x="188" y="924.8184">[activate succeeded and no recursion detected]</text><polygon fill="#A80036" points="543.5,946.4941,553.5,950.4941,543.5,954.4941,547.5,950.4941" style="stroke: #A80036; stroke-width: 1.0;"/><line style="stroke: #A80036; stroke-width: 1.0;" x1="194" x2="549.5" y1="950.4941" y2="950.4941"/><text fill="#000000" font-family="sans-serif" font-size="13" lengthAdjust="spacingAndGlyphs" textLength="184" x="201" y="946.0625">SetCompInstanceAndContext</text><polygon fill="#A80036" points="14,982.8047,4,986.8047,14,990.8047,10,986.8047" style="stroke: #A80036; stroke-width: 1.0;"/><line style="stroke: #A80036; stroke-width: 1.0;" x1="8" x2="193" y1="986.8047" y2="986.8047"/><text fill="#000000" font-family="sans-serif" font-size="13" lengthAdjust="spacingAndGlyphs" textLength="167" x="20" y="982.373">true if activation suceeded</text><!--
@startuml
title SatisfiedState::DoActivate
skinparam ParticipantPadding 20
skinparam BoxPadding 10
skinparam shadowing false
skinparam sequenceGroupBorderThickness 1
participant SatisfiedState
participant TransitionState
participant ComponentConfiguration
participant ComponentContextImpl
participant ReferenceManager
participant System
Participant "Logger\n(service)" as Logger
box "Client bundle" #E9E9F9
participant "ComponentInstanceImpl\n(autogenerated)" as ComponentInstanceImpl
participant "ServiceImpl\n(handwritten)" as ServiceImpl
end box
[-> SatisfiedState: DoActivate

SatisfiedState->ComponentConfiguration: CreateComponentInstanceWrapper
activate ComponentConfiguration
alt if function pointers are nullptr
ComponentConfiguration->ComponentConfiguration: LoadBundleBinary using call_once
activate ComponentConfiguration
ComponentConfiguration->System: LoadLibrary
activate System
System->ComponentConfiguration: mHandle
deactivate System
ComponentConfiguration->System: use dlsym to find the symbol addresses
end
deactivate ComponentConfiguration
ComponentConfiguration->ComponentInstanceImpl: Create using the extern C method
ComponentConfiguration->ComponentContextImpl: Create
group try
ComponentConfiguration->ComponentInstanceImpl: CreateInstanceAndBindReferences(mContext)
activate ComponentInstanceImpl
loop for each reference
ComponentInstanceImpl->ComponentContextImpl: LocateService(referenceName)
activate ComponentContextImpl
ComponentContextImpl->ComponentConfiguration: GetDependencyManager(referenceName)
ComponentContextImpl->ReferenceManager: GetBoundService()
activate ReferenceManager
ReferenceManager- ->ComponentContextImpl:
deactivate ReferenceManager
ComponentContextImpl->ComponentInstanceImpl: bound Service
deactivate ComponentContextImpl
end
ComponentInstanceImpl->ServiceImpl: Create(bound service objects)
activate ServiceImpl
ServiceImpl- ->ComponentInstanceImpl: 
deactivate ServiceImpl
ComponentInstanceImpl- ->ComponentConfiguration
deactivate ComponentInstanceImpl
ComponentConfiguration->SatisfiedState: compWrapper
SatisfiedState->ComponentInstanceImpl: Activate
ComponentInstanceImpl->ServiceImpl: Activate(mContext)
activate ServiceImpl
ServiceImpl- ->ComponentInstanceImpl: 
deactivate ServiceImpl
else caught exception
SatisfiedState->ComponentConfiguration: GetLogger
SatisfiedState->Logger: log exception
end
SatisfiedState->TransitionState: IsRecursionDetected
activate TransitionState
TransitionState->SatisfiedState: true/false
deactivate TransitionState
alt activate succeeded and no recursion detected
SatisfiedState->ComponentConfiguration:SetCompInstanceAndContext
end
[<- SatisfiedState: true if activation suceeded
@enduml

PlantUML version 1.2017.20(Mon Dec 11 11:57:05 EST 2017)
(GPL source distribution)
Java Runtime: Java(TM) SE Runtime Environment
JVM: Java HotSpot(TM) 64-Bit Server VM
Java Version: 1.8.0_151-b12
Operating System: Mac OS X
OS Version: 10.12.6
Default Encoding: UTF-8
Language: en
Country: US
--></g></svg>