<?xml version="1.0" encoding="UTF-8" standalone="no"?><svg xmlns="http://www.w3.org/2000/svg" xmlns:xlink="http://www.w3.org/1999/xlink" contentScriptType="application/ecmascript" contentStyleType="text/css" height="545px" preserveAspectRatio="none" style="width:911px;height:545px;" version="1.1" viewBox="0 0 911 545" width="911px" zoomAndPan="magnify"><defs/><g><text fill="#000000" font-family="sans-serif" font-size="14" font-weight="bold" lengthAdjust="spacingAndGlyphs" textLength="182" x="368.25" y="23.5352">SCRBundleActivator::Start</text><rect fill="#FFFFFF" height="307.416" style="stroke: #A80036; stroke-width: 1.0;" width="10" x="170.5" y="143.9766"/><rect fill="#FFFFFF" height="29.3105" style="stroke: #A80036; stroke-width: 1.0;" width="10" x="447.5" y="173.2871"/><rect fill="#FFFFFF" height="29.3105" style="stroke: #A80036; stroke-width: 1.0;" width="10" x="447.5" y="290.5293"/><rect fill="#FFFFFF" height="29.3105" style="stroke: #A80036; stroke-width: 1.0;" width="10" x="447.5" y="407.7715"/><rect fill="#FFFFFF" height="29.3105" style="stroke: #A80036; stroke-width: 1.0;" width="10" x="590.5" y="231.9082"/><rect fill="#FFFFFF" height="29.3105" style="stroke: #A80036; stroke-width: 1.0;" width="10" x="790.5" y="349.1504"/><line style="stroke: #A80036; stroke-width: 1.0; stroke-dasharray: 5.0,5.0;" x1="49" x2="49" y1="112.9766" y2="469.3926"/><line style="stroke: #A80036; stroke-width: 1.0; stroke-dasharray: 5.0,5.0;" x1="175" x2="175" y1="112.9766" y2="469.3926"/><line style="stroke: #A80036; stroke-width: 1.0; stroke-dasharray: 5.0,5.0;" x1="452.5" x2="452.5" y1="112.9766" y2="469.3926"/><line style="stroke: #A80036; stroke-width: 1.0; stroke-dasharray: 5.0,5.0;" x1="595.5" x2="595.5" y1="112.9766" y2="469.3926"/><line style="stroke: #A80036; stroke-width: 1.0; stroke-dasharray: 5.0,5.0;" x1="795.5" x2="795.5" y1="112.9766" y2="469.3926"/><text fill="#000000" font-family="sans-serif" font-size="14" lengthAdjust="spacingAndGlyphs" textLength="77" x="8" y="110.0234">Framework</text><ellipse cx="49.5" cy="43.4883" fill="#FEFECE" rx="8" ry="8" style="stroke: #A80036; stroke-width: 2.0;"/><path d="M49.5,51.4883 L49.5,78.4883 M36.5,59.4883 L62.5,59.4883 M49.5,78.4883 L36.5,93.4883 M49.5,78.4883 L62.5,93.4883 " fill="#FEFECE" style="stroke: #A80036; stroke-width: 2.0;"/><text fill="#000000" font-family="sans-serif" font-size="14" lengthAdjust="spacingAndGlyphs" textLength="77" x="8" y="481.9277">Framework</text><ellipse cx="49.5" cy="494.8809" fill="#FEFECE" rx="8" ry="8" style="stroke: #A80036; stroke-width: 2.0;"/><path d="M49.5,502.8809 L49.5,529.8809 M36.5,510.8809 L62.5,510.8809 M49.5,529.8809 L36.5,544.8809 M49.5,529.8809 L62.5,544.8809 " fill="#FEFECE" style="stroke: #A80036; stroke-width: 2.0;"/><rect fill="#FEFECE" height="30.4883" style="stroke: #A80036; stroke-width: 1.5;" width="149" x="101" y="81.4883"/><text fill="#000000" font-family="sans-serif" font-size="14" lengthAdjust="spacingAndGlyphs" textLength="135" x="108" y="102.0234">SCRBundleActivator</text><rect fill="#FEFECE" height="30.4883" style="stroke: #A80036; stroke-width: 1.5;" width="149" x="101" y="468.3926"/><text fill="#000000" font-family="sans-serif" font-size="14" lengthAdjust="spacingAndGlyphs" textLength="135" x="108" y="488.9277">SCRBundleActivator</text><rect fill="#FEFECE" height="30.4883" style="stroke: #A80036; stroke-width: 1.5;" width="116" x="394.5" y="81.4883"/><text fill="#000000" font-family="sans-serif" font-size="14" lengthAdjust="spacingAndGlyphs" textLength="102" x="401.5" y="102.0234">BundleContext</text><rect fill="#FEFECE" height="30.4883" style="stroke: #A80036; stroke-width: 1.5;" width="116" x="394.5" y="468.3926"/><text fill="#000000" font-family="sans-serif" font-size="14" lengthAdjust="spacingAndGlyphs" textLength="102" x="401.5" y="488.9277">BundleContext</text><rect fill="#FEFECE" height="30.4883" style="stroke: #A80036; stroke-width: 1.5;" width="150" x="520.5" y="81.4883"/><text fill="#000000" font-family="sans-serif" font-size="14" lengthAdjust="spacingAndGlyphs" textLength="136" x="527.5" y="102.0234">ComponentRegistry</text><rect fill="#FEFECE" height="30.4883" style="stroke: #A80036; stroke-width: 1.5;" width="150" x="520.5" y="468.3926"/><text fill="#000000" font-family="sans-serif" font-size="14" lengthAdjust="spacingAndGlyphs" textLength="136" x="527.5" y="488.9277">ComponentRegistry</text><rect fill="#FEFECE" height="30.4883" style="stroke: #A80036; stroke-width: 1.5;" width="230" x="680.5" y="81.4883"/><text fill="#000000" font-family="sans-serif" font-size="14" lengthAdjust="spacingAndGlyphs" textLength="216" x="687.5" y="102.0234">ServiceComponentRuntimeImpl</text><rect fill="#FEFECE" height="30.4883" style="stroke: #A80036; stroke-width: 1.5;" width="230" x="680.5" y="468.3926"/><text fill="#000000" font-family="sans-serif" font-size="14" lengthAdjust="spacingAndGlyphs" textLength="216" x="687.5" y="488.9277">ServiceComponentRuntimeImpl</text><rect fill="#FFFFFF" height="307.416" style="stroke: #A80036; stroke-width: 1.0;" width="10" x="170.5" y="143.9766"/><rect fill="#FFFFFF" height="29.3105" style="stroke: #A80036; stroke-width: 1.0;" width="10" x="447.5" y="173.2871"/><rect fill="#FFFFFF" height="29.3105" style="stroke: #A80036; stroke-width: 1.0;" width="10" x="447.5" y="290.5293"/><rect fill="#FFFFFF" height="29.3105" style="stroke: #A80036; stroke-width: 1.0;" width="10" x="447.5" y="407.7715"/><rect fill="#FFFFFF" height="29.3105" style="stroke: #A80036; stroke-width: 1.0;" width="10" x="590.5" y="231.9082"/><rect fill="#FFFFFF" height="29.3105" style="stroke: #A80036; stroke-width: 1.0;" width="10" x="790.5" y="349.1504"/><polygon fill="#A80036" points="158.5,139.9766,168.5,143.9766,158.5,147.9766,162.5,143.9766" style="stroke: #A80036; stroke-width: 1.0;"/><line style="stroke: #A80036; stroke-width: 1.0;" x1="49.5" x2="164.5" y1="143.9766" y2="143.9766"/><text fill="#000000" font-family="sans-serif" font-size="13" lengthAdjust="spacingAndGlyphs" textLength="29" x="56.5" y="139.5449">Start</text><polygon fill="#A80036" points="435.5,169.2871,445.5,173.2871,435.5,177.2871,439.5,173.2871" style="stroke: #A80036; stroke-width: 1.0;"/><line style="stroke: #A80036; stroke-width: 1.0;" x1="180.5" x2="441.5" y1="173.2871" y2="173.2871"/><text fill="#000000" font-family="sans-serif" font-size="13" lengthAdjust="spacingAndGlyphs" textLength="128" x="187.5" y="168.8555">GetService&lt;Logger&gt;</text><polygon fill="#A80036" points="191.5,198.5977,181.5,202.5977,191.5,206.5977,187.5,202.5977" style="stroke: #A80036; stroke-width: 1.0;"/><line style="stroke: #A80036; stroke-width: 1.0; stroke-dasharray: 2.0,2.0;" x1="185.5" x2="451.5" y1="202.5977" y2="202.5977"/><text fill="#000000" font-family="sans-serif" font-size="13" lengthAdjust="spacingAndGlyphs" textLength="55" x="197.5" y="198.166">mLogger</text><polygon fill="#A80036" points="578.5,227.9082,588.5,231.9082,578.5,235.9082,582.5,231.9082" style="stroke: #A80036; stroke-width: 1.0;"/><line style="stroke: #A80036; stroke-width: 1.0;" x1="180.5" x2="584.5" y1="231.9082" y2="231.9082"/><text fill="#000000" font-family="sans-serif" font-size="13" lengthAdjust="spacingAndGlyphs" textLength="78" x="187.5" y="227.4766">&lt;&lt;create&gt;&gt;</text><polygon fill="#A80036" points="191.5,257.2188,181.5,261.2188,191.5,265.2188,187.5,261.2188" style="stroke: #A80036; stroke-width: 1.0;"/><line style="stroke: #A80036; stroke-width: 1.0; stroke-dasharray: 2.0,2.0;" x1="185.5" x2="594.5" y1="261.2188" y2="261.2188"/><text fill="#000000" font-family="sans-serif" font-size="13" lengthAdjust="spacingAndGlyphs" textLength="63" x="197.5" y="256.7871">mRegistry</text><polygon fill="#A80036" points="435.5,286.5293,445.5,290.5293,435.5,294.5293,439.5,290.5293" style="stroke: #A80036; stroke-width: 1.0;"/><line style="stroke: #A80036; stroke-width: 1.0;" x1="180.5" x2="441.5" y1="290.5293" y2="290.5293"/><text fill="#000000" font-family="sans-serif" font-size="13" lengthAdjust="spacingAndGlyphs" textLength="248" x="187.5" y="286.0977">RegisterBundleListener(BundleChanged)</text><polygon fill="#A80036" points="191.5,315.8398,181.5,319.8398,191.5,323.8398,187.5,319.8398" style="stroke: #A80036; stroke-width: 1.0;"/><line style="stroke: #A80036; stroke-width: 1.0; stroke-dasharray: 2.0,2.0;" x1="185.5" x2="451.5" y1="319.8398" y2="319.8398"/><text fill="#000000" font-family="sans-serif" font-size="13" lengthAdjust="spacingAndGlyphs" textLength="101" x="197.5" y="315.4082">mListenerToken</text><polygon fill="#A80036" points="778.5,345.1504,788.5,349.1504,778.5,353.1504,782.5,349.1504" style="stroke: #A80036; stroke-width: 1.0;"/><line style="stroke: #A80036; stroke-width: 1.0;" x1="180.5" x2="784.5" y1="349.1504" y2="349.1504"/><text fill="#000000" font-family="sans-serif" font-size="13" lengthAdjust="spacingAndGlyphs" textLength="78" x="187.5" y="344.7188">&lt;&lt;create&gt;&gt;</text><polygon fill="#A80036" points="191.5,374.4609,181.5,378.4609,191.5,382.4609,187.5,378.4609" style="stroke: #A80036; stroke-width: 1.0;"/><line style="stroke: #A80036; stroke-width: 1.0; stroke-dasharray: 2.0,2.0;" x1="185.5" x2="794.5" y1="378.4609" y2="378.4609"/><text fill="#000000" font-family="sans-serif" font-size="13" lengthAdjust="spacingAndGlyphs" textLength="97" x="197.5" y="374.0293">serviceInstance</text><polygon fill="#A80036" points="435.5,403.7715,445.5,407.7715,435.5,411.7715,439.5,407.7715" style="stroke: #A80036; stroke-width: 1.0;"/><line style="stroke: #A80036; stroke-width: 1.0;" x1="180.5" x2="441.5" y1="407.7715" y2="407.7715"/><text fill="#000000" font-family="sans-serif" font-size="13" lengthAdjust="spacingAndGlyphs" textLength="200" x="187.5" y="403.3398">RegisterService(serviceInstance)</text><polygon fill="#A80036" points="191.5,433.082,181.5,437.082,191.5,441.082,187.5,437.082" style="stroke: #A80036; stroke-width: 1.0;"/><line style="stroke: #A80036; stroke-width: 1.0; stroke-dasharray: 2.0,2.0;" x1="185.5" x2="451.5" y1="437.082" y2="437.082"/><text fill="#000000" font-family="sans-serif" font-size="13" lengthAdjust="spacingAndGlyphs" textLength="79" x="197.5" y="432.6504">mServiceReg</text><polygon fill="#A80036" points="60.5,447.3926,50.5,451.3926,60.5,455.3926,56.5,451.3926" style="stroke: #A80036; stroke-width: 1.0;"/><line style="stroke: #A80036; stroke-width: 1.0;" x1="54.5" x2="174.5" y1="451.3926" y2="451.3926"/></g></svg>