<?xml version="1.0" encoding="UTF-8" standalone="no"?><svg xmlns="http://www.w3.org/2000/svg" xmlns:xlink="http://www.w3.org/1999/xlink" contentScriptType="application/ecmascript" contentStyleType="text/css" height="722px" preserveAspectRatio="none" style="width:1477px;height:722px;" version="1.1" viewBox="0 0 1477 722" width="1477px" zoomAndPan="magnify"><defs/><g><text fill="#000000" font-family="sans-serif" font-size="14" font-weight="bold" lengthAdjust="spacingAndGlyphs" textLength="180" x="654.5" y="23.5352">SCRBundleActivator::Stop</text><rect fill="#FFFFFF" height="484.0371" style="stroke: #A80036; stroke-width: 1.0;" width="10" x="170.5" y="143.9766"/><rect fill="#FFFFFF" height="57.6211" style="stroke: #A80036; stroke-width: 1.0;" width="10" x="351.5" y="173.2871"/><rect fill="#FFFFFF" height="14.3105" style="stroke: #A80036; stroke-width: 1.0;" width="10" x="549" y="202.5977"/><rect fill="#FFFFFF" height="14.3105" style="stroke: #A80036; stroke-width: 1.0;" width="10" x="732" y="259.9082"/><rect fill="#FFFFFF" height="236.1738" style="stroke: #A80036; stroke-width: 1.0;" width="10" x="878" y="327.5293"/><rect fill="#FFFFFF" height="14.3105" style="stroke: #A80036; stroke-width: 1.0;" width="10" x="1079" y="356.8398"/><rect fill="#FFFFFF" height="14.3105" style="stroke: #A80036; stroke-width: 1.0;" width="10" x="1079" y="599.7031"/><rect fill="#FFFFFF" height="149.5527" style="stroke: #A80036; stroke-width: 1.0;" width="10" x="1241.5" y="400.1504"/><rect fill="#FFFFFF" height="282.4844" style="stroke: #000000; stroke-width: 1.0;" width="1385" x="91" y="289.2188"/><line style="stroke: #A80036; stroke-width: 1.0; stroke-dasharray: 5.0,5.0;" x1="49" x2="49" y1="112.9766" y2="646.0137"/><line style="stroke: #A80036; stroke-width: 1.0; stroke-dasharray: 5.0,5.0;" x1="175" x2="175" y1="112.9766" y2="646.0137"/><line style="stroke: #A80036; stroke-width: 1.0; stroke-dasharray: 5.0,5.0;" x1="356" x2="356" y1="112.9766" y2="646.0137"/><line style="stroke: #A80036; stroke-width: 1.0; stroke-dasharray: 5.0,5.0;" x1="554" x2="554" y1="112.9766" y2="646.0137"/><line style="stroke: #A80036; stroke-width: 1.0; stroke-dasharray: 5.0,5.0;" x1="737" x2="737" y1="112.9766" y2="646.0137"/><line style="stroke: #A80036; stroke-width: 1.0; stroke-dasharray: 5.0,5.0;" x1="883" x2="883" y1="112.9766" y2="646.0137"/><line style="stroke: #A80036; stroke-width: 1.0; stroke-dasharray: 5.0,5.0;" x1="1084" x2="1084" y1="112.9766" y2="646.0137"/><line style="stroke: #A80036; stroke-width: 1.0; stroke-dasharray: 5.0,5.0;" x1="1246" x2="1246" y1="112.9766" y2="646.0137"/><text fill="#000000" font-family="sans-serif" font-size="14" lengthAdjust="spacingAndGlyphs" textLength="77" x="8" y="110.0234">Framework</text><ellipse cx="49.5" cy="43.4883" fill="#FEFECE" rx="8" ry="8" style="stroke: #A80036; stroke-width: 2.0;"/><path d="M49.5,51.4883 L49.5,78.4883 M36.5,59.4883 L62.5,59.4883 M49.5,78.4883 L36.5,93.4883 M49.5,78.4883 L62.5,93.4883 " fill="#FEFECE" style="stroke: #A80036; stroke-width: 2.0;"/><text fill="#000000" font-family="sans-serif" font-size="14" lengthAdjust="spacingAndGlyphs" textLength="77" x="8" y="658.5488">Framework</text><ellipse cx="49.5" cy="671.502" fill="#FEFECE" rx="8" ry="8" style="stroke: #A80036; stroke-width: 2.0;"/><path d="M49.5,679.502 L49.5,706.502 M36.5,687.502 L62.5,687.502 M49.5,706.502 L36.5,721.502 M49.5,706.502 L62.5,721.502 " fill="#FEFECE" style="stroke: #A80036; stroke-width: 2.0;"/><rect fill="#FEFECE" height="30.4883" style="stroke: #A80036; stroke-width: 1.5;" width="149" x="101" y="81.4883"/><text fill="#000000" font-family="sans-serif" font-size="14" lengthAdjust="spacingAndGlyphs" textLength="135" x="108" y="102.0234">SCRBundleActivator</text><rect fill="#FEFECE" height="30.4883" style="stroke: #A80036; stroke-width: 1.5;" width="149" x="101" y="645.0137"/><text fill="#000000" font-family="sans-serif" font-size="14" lengthAdjust="spacingAndGlyphs" textLength="135" x="108" y="665.5488">SCRBundleActivator</text><rect fill="#FEFECE" height="30.4883" style="stroke: #A80036; stroke-width: 1.5;" width="145" x="284" y="81.4883"/><text fill="#000000" font-family="sans-serif" font-size="14" lengthAdjust="spacingAndGlyphs" textLength="131" x="291" y="102.0234">ServiceRegistration</text><rect fill="#FEFECE" height="30.4883" style="stroke: #A80036; stroke-width: 1.5;" width="145" x="284" y="645.0137"/><text fill="#000000" font-family="sans-serif" font-size="14" lengthAdjust="spacingAndGlyphs" textLength="131" x="291" y="665.5488">ServiceRegistration</text><rect fill="#FEFECE" height="30.4883" style="stroke: #A80036; stroke-width: 1.5;" width="230" x="439" y="81.4883"/><text fill="#000000" font-family="sans-serif" font-size="14" lengthAdjust="spacingAndGlyphs" textLength="216" x="446" y="102.0234">ServiceComponentRuntimeImpl</text><rect fill="#FEFECE" height="30.4883" style="stroke: #A80036; stroke-width: 1.5;" width="230" x="439" y="645.0137"/><text fill="#000000" font-family="sans-serif" font-size="14" lengthAdjust="spacingAndGlyphs" textLength="216" x="446" y="665.5488">ServiceComponentRuntimeImpl</text><rect fill="#FEFECE" height="30.4883" style="stroke: #A80036; stroke-width: 1.5;" width="116" x="679" y="81.4883"/><text fill="#000000" font-family="sans-serif" font-size="14" lengthAdjust="spacingAndGlyphs" textLength="102" x="686" y="102.0234">BundleContext</text><rect fill="#FEFECE" height="30.4883" style="stroke: #A80036; stroke-width: 1.5;" width="116" x="679" y="645.0137"/><text fill="#000000" font-family="sans-serif" font-size="14" lengthAdjust="spacingAndGlyphs" textLength="102" x="686" y="665.5488">BundleContext</text><rect fill="#FEFECE" height="30.4883" style="stroke: #A80036; stroke-width: 1.5;" width="156" x="805" y="81.4883"/><text fill="#000000" font-family="sans-serif" font-size="14" lengthAdjust="spacingAndGlyphs" textLength="142" x="812" y="102.0234">SCRBundleExtension</text><rect fill="#FEFECE" height="30.4883" style="stroke: #A80036; stroke-width: 1.5;" width="156" x="805" y="645.0137"/><text fill="#000000" font-family="sans-serif" font-size="14" lengthAdjust="spacingAndGlyphs" textLength="142" x="812" y="665.5488">SCRBundleExtension</text><rect fill="#FEFECE" height="30.4883" style="stroke: #A80036; stroke-width: 1.5;" width="150" x="1009" y="81.4883"/><text fill="#000000" font-family="sans-serif" font-size="14" lengthAdjust="spacingAndGlyphs" textLength="136" x="1016" y="102.0234">ComponentRegistry</text><rect fill="#FEFECE" height="30.4883" style="stroke: #A80036; stroke-width: 1.5;" width="150" x="1009" y="645.0137"/><text fill="#000000" font-family="sans-serif" font-size="14" lengthAdjust="spacingAndGlyphs" textLength="136" x="1016" y="665.5488">ComponentRegistry</text><rect fill="#FEFECE" height="30.4883" style="stroke: #A80036; stroke-width: 1.5;" width="155" x="1169" y="81.4883"/><text fill="#000000" font-family="sans-serif" font-size="14" lengthAdjust="spacingAndGlyphs" textLength="141" x="1176" y="102.0234">ComponentManager</text><rect fill="#FEFECE" height="30.4883" style="stroke: #A80036; stroke-width: 1.5;" width="155" x="1169" y="645.0137"/><text fill="#000000" font-family="sans-serif" font-size="14" lengthAdjust="spacingAndGlyphs" textLength="141" x="1176" y="665.5488">ComponentManager</text><rect fill="#FFFFFF" height="484.0371" style="stroke: #A80036; stroke-width: 1.0;" width="10" x="170.5" y="143.9766"/><rect fill="#FFFFFF" height="57.6211" style="stroke: #A80036; stroke-width: 1.0;" width="10" x="351.5" y="173.2871"/><rect fill="#FFFFFF" height="14.3105" style="stroke: #A80036; stroke-width: 1.0;" width="10" x="549" y="202.5977"/><rect fill="#FFFFFF" height="14.3105" style="stroke: #A80036; stroke-width: 1.0;" width="10" x="732" y="259.9082"/><rect fill="#FFFFFF" height="236.1738" style="stroke: #A80036; stroke-width: 1.0;" width="10" x="878" y="327.5293"/><rect fill="#FFFFFF" height="14.3105" style="stroke: #A80036; stroke-width: 1.0;" width="10" x="1079" y="356.8398"/><rect fill="#FFFFFF" height="14.3105" style="stroke: #A80036; stroke-width: 1.0;" width="10" x="1079" y="599.7031"/><rect fill="#FFFFFF" height="149.5527" style="stroke: #A80036; stroke-width: 1.0;" width="10" x="1241.5" y="400.1504"/><polygon fill="#A80036" points="158.5,139.9766,168.5,143.9766,158.5,147.9766,162.5,143.9766" style="stroke: #A80036; stroke-width: 1.0;"/><line style="stroke: #A80036; stroke-width: 1.0;" x1="49.5" x2="164.5" y1="143.9766" y2="143.9766"/><text fill="#000000" font-family="sans-serif" font-size="13" lengthAdjust="spacingAndGlyphs" textLength="28" x="56.5" y="139.5449">Stop</text><polygon fill="#A80036" points="339.5,169.2871,349.5,173.2871,339.5,177.2871,343.5,173.2871" style="stroke: #A80036; stroke-width: 1.0;"/><line style="stroke: #A80036; stroke-width: 1.0;" x1="180.5" x2="345.5" y1="173.2871" y2="173.2871"/><text fill="#000000" font-family="sans-serif" font-size="13" lengthAdjust="spacingAndGlyphs" textLength="152" x="187.5" y="168.8555">Unregister(mServiceReg)</text><polygon fill="#A80036" points="537,198.5977,547,202.5977,537,206.5977,541,202.5977" style="stroke: #A80036; stroke-width: 1.0;"/><line style="stroke: #A80036; stroke-width: 1.0;" x1="361.5" x2="543" y1="202.5977" y2="202.5977"/><text fill="#000000" font-family="sans-serif" font-size="13" lengthAdjust="spacingAndGlyphs" textLength="38" x="368.5" y="198.166">delete</text><polygon fill="#A80036" points="372.5,212.9082,362.5,216.9082,372.5,220.9082,368.5,216.9082" style="stroke: #A80036; stroke-width: 1.0;"/><line style="stroke: #A80036; stroke-width: 1.0; stroke-dasharray: 2.0,2.0;" x1="366.5" x2="553" y1="216.9082" y2="216.9082"/><line style="stroke: #A80036; stroke-width: 2.0;" x1="545" x2="563" y1="207.9082" y2="225.9082"/><line style="stroke: #A80036; stroke-width: 2.0;" x1="545" x2="563" y1="225.9082" y2="207.9082"/><polygon fill="#A80036" points="191.5,226.9082,181.5,230.9082,191.5,234.9082,187.5,230.9082" style="stroke: #A80036; stroke-width: 1.0;"/><line style="stroke: #A80036; stroke-width: 1.0; stroke-dasharray: 2.0,2.0;" x1="185.5" x2="355.5" y1="230.9082" y2="230.9082"/><polygon fill="#A80036" points="720,255.9082,730,259.9082,720,263.9082,724,259.9082" style="stroke: #A80036; stroke-width: 1.0;"/><line style="stroke: #A80036; stroke-width: 1.0;" x1="180.5" x2="726" y1="259.9082" y2="259.9082"/><text fill="#000000" font-family="sans-serif" font-size="13" lengthAdjust="spacingAndGlyphs" textLength="250" x="187.5" y="255.4766">RemoveBundleListener(mListenerToken)</text><polygon fill="#A80036" points="191.5,270.2188,181.5,274.2188,191.5,278.2188,187.5,274.2188" style="stroke: #A80036; stroke-width: 1.0;"/><line style="stroke: #A80036; stroke-width: 1.0; stroke-dasharray: 2.0,2.0;" x1="185.5" x2="736" y1="274.2188" y2="274.2188"/><rect fill="none" height="282.4844" style="stroke: #000000; stroke-width: 1.0;" width="1385" x="91" y="289.2188"/><polygon fill="#EEEEEE" points="91,289.2188,165,289.2188,165,296.2188,155,306.2188,91,306.2188,91,289.2188" style="stroke: #000000; stroke-width: 1.0;"/><text fill="#000000" font-family="sans-serif" font-size="13" font-weight="bold" lengthAdjust="spacingAndGlyphs" textLength="29" x="106" y="302.7871">loop</text><text fill="#000000" font-family="sans-serif" font-size="11" font-weight="bold" lengthAdjust="spacingAndGlyphs" textLength="240" x="180" y="301.8535">[for each bundle extension created by SCR]</text><polygon fill="#A80036" points="866,323.5293,876,327.5293,866,331.5293,870,327.5293" style="stroke: #A80036; stroke-width: 1.0;"/><line style="stroke: #A80036; stroke-width: 1.0;" x1="180.5" x2="872" y1="327.5293" y2="327.5293"/><text fill="#000000" font-family="sans-serif" font-size="13" lengthAdjust="spacingAndGlyphs" textLength="38" x="187.5" y="323.0977">delete</text><polygon fill="#A80036" points="1067,352.8398,1077,356.8398,1067,360.8398,1071,356.8398" style="stroke: #A80036; stroke-width: 1.0;"/><line style="stroke: #A80036; stroke-width: 1.0;" x1="888" x2="1073" y1="356.8398" y2="356.8398"/><text fill="#000000" font-family="sans-serif" font-size="13" lengthAdjust="spacingAndGlyphs" textLength="172" x="895" y="352.4082">removeComponentManager</text><polygon fill="#A80036" points="899,367.1504,889,371.1504,899,375.1504,895,371.1504" style="stroke: #A80036; stroke-width: 1.0;"/><line style="stroke: #A80036; stroke-width: 1.0; stroke-dasharray: 2.0,2.0;" x1="893" x2="1083" y1="371.1504" y2="371.1504"/><polygon fill="#A80036" points="1229.5,396.1504,1239.5,400.1504,1229.5,404.1504,1233.5,400.1504" style="stroke: #A80036; stroke-width: 1.0;"/><line style="stroke: #A80036; stroke-width: 1.0;" x1="888" x2="1235.5" y1="400.1504" y2="400.1504"/><text fill="#000000" font-family="sans-serif" font-size="13" lengthAdjust="spacingAndGlyphs" textLength="38" x="895" y="395.7188">delete</text><line style="stroke: #A80036; stroke-width: 1.0;" x1="1251.5" x2="1293.5" y1="429.7715" y2="429.7715"/><line style="stroke: #A80036; stroke-width: 1.0;" x1="1293.5" x2="1293.5" y1="429.7715" y2="442.7715"/><line style="stroke: #A80036; stroke-width: 1.0;" x1="1252.5" x2="1293.5" y1="442.7715" y2="442.7715"/><polygon fill="#A80036" points="1262.5,438.7715,1252.5,442.7715,1262.5,446.7715,1258.5,442.7715" style="stroke: #A80036; stroke-width: 1.0;"/><text fill="#000000" font-family="sans-serif" font-size="13" lengthAdjust="spacingAndGlyphs" textLength="47" x="1258.5" y="425.0293">Disable</text><polygon fill="#FBFB77" points="1256,455.7715,1256,495.7715,1466,495.7715,1466,465.7715,1456,455.7715,1256,455.7715" style="stroke: #A80036; stroke-width: 1.0;"/><line style="stroke: #A80036; stroke-width: 1.0;" x1="1456" x2="1456" y1="455.7715" y2="465.7715"/><line style="stroke: #A80036; stroke-width: 1.0;" x1="1466" x2="1456" y1="465.7715" y2="465.7715"/><text fill="#000000" font-family="sans-serif" font-size="13" lengthAdjust="spacingAndGlyphs" textLength="185" x="1262" y="473.3398">see the sequence diagram for</text><text fill="#000000" font-family="sans-serif" font-size="13" lengthAdjust="spacingAndGlyphs" textLength="181" x="1262" y="488.6504">ComponentManager::Disable</text><line style="stroke: #A80036; stroke-width: 1.0;" x1="1251.5" x2="1293.5" y1="522.7031" y2="522.7031"/><line style="stroke: #A80036; stroke-width: 1.0;" x1="1293.5" x2="1293.5" y1="522.7031" y2="535.7031"/><line style="stroke: #A80036; stroke-width: 1.0;" x1="1252.5" x2="1293.5" y1="535.7031" y2="535.7031"/><polygon fill="#A80036" points="1262.5,531.7031,1252.5,535.7031,1262.5,539.7031,1258.5,535.7031" style="stroke: #A80036; stroke-width: 1.0;"/><text fill="#000000" font-family="sans-serif" font-size="13" lengthAdjust="spacingAndGlyphs" textLength="161" x="1258.5" y="517.9609">Wait for all stored futures</text><polygon fill="#A80036" points="899,545.7031,889,549.7031,899,553.7031,895,549.7031" style="stroke: #A80036; stroke-width: 1.0;"/><line style="stroke: #A80036; stroke-width: 1.0; stroke-dasharray: 2.0,2.0;" x1="893" x2="1245.5" y1="549.7031" y2="549.7031"/><line style="stroke: #A80036; stroke-width: 2.0;" x1="1237.5" x2="1255.5" y1="540.7031" y2="558.7031"/><line style="stroke: #A80036; stroke-width: 2.0;" x1="1237.5" x2="1255.5" y1="558.7031" y2="540.7031"/><polygon fill="#A80036" points="191.5,559.7031,181.5,563.7031,191.5,567.7031,187.5,563.7031" style="stroke: #A80036; stroke-width: 1.0;"/><line style="stroke: #A80036; stroke-width: 1.0; stroke-dasharray: 2.0,2.0;" x1="185.5" x2="882" y1="563.7031" y2="563.7031"/><line style="stroke: #A80036; stroke-width: 2.0;" x1="874" x2="892" y1="554.7031" y2="572.7031"/><line style="stroke: #A80036; stroke-width: 2.0;" x1="874" x2="892" y1="572.7031" y2="554.7031"/><polygon fill="#A80036" points="1067,595.7031,1077,599.7031,1067,603.7031,1071,599.7031" style="stroke: #A80036; stroke-width: 1.0;"/><line style="stroke: #A80036; stroke-width: 1.0;" x1="180.5" x2="1073" y1="599.7031" y2="599.7031"/><text fill="#000000" font-family="sans-serif" font-size="13" lengthAdjust="spacingAndGlyphs" textLength="38" x="187.5" y="595.2715">delete</text><polygon fill="#A80036" points="191.5,610.0137,181.5,614.0137,191.5,618.0137,187.5,614.0137" style="stroke: #A80036; stroke-width: 1.0;"/><line style="stroke: #A80036; stroke-width: 1.0; stroke-dasharray: 2.0,2.0;" x1="185.5" x2="1083" y1="614.0137" y2="614.0137"/><line style="stroke: #A80036; stroke-width: 2.0;" x1="1075" x2="1093" y1="605.0137" y2="623.0137"/><line style="stroke: #A80036; stroke-width: 2.0;" x1="1075" x2="1093" y1="623.0137" y2="605.0137"/><polygon fill="#A80036" points="60.5,624.0137,50.5,628.0137,60.5,632.0137,56.5,628.0137" style="stroke: #A80036; stroke-width: 1.0;"/><line style="stroke: #A80036; stroke-width: 1.0; stroke-dasharray: 2.0,2.0;" x1="54.5" x2="174.5" y1="628.0137" y2="628.0137"/></g></svg>