<?xml version="1.0" encoding="UTF-8" standalone="no"?><svg xmlns="http://www.w3.org/2000/svg" xmlns:xlink="http://www.w3.org/1999/xlink" contentScriptType="application/ecmascript" contentStyleType="text/css" height="1001px" preserveAspectRatio="none" style="width:1120px;height:1001px;" version="1.1" viewBox="0 0 1120 1001" width="1120px" zoomAndPan="magnify"><defs/><g><text fill="#000000" font-family="sans-serif" font-size="14" font-weight="bold" lengthAdjust="spacingAndGlyphs" textLength="259" x="436.5" y="23.5352">SCRBundleActivator::BundleChanged</text><rect fill="#FFFFFF" height="763.4766" style="stroke: #A80036; stroke-width: 1.0;" width="10" x="250.5" y="143.9766"/><rect fill="#FFFFFF" height="361.416" style="stroke: #A80036; stroke-width: 1.0;" width="10" x="477.5" y="197.5977"/><rect fill="#FFFFFF" height="167.5527" style="stroke: #A80036; stroke-width: 1.0;" width="10" x="477.5" y="711.9004"/><rect fill="#FFFFFF" height="243.4844" style="stroke: #A80036; stroke-width: 1.0;" width="10" x="643" y="251.2188"/><rect fill="#FFFFFF" height="60.6211" style="stroke: #A80036; stroke-width: 1.0;" width="10" x="648" y="288.5293"/><rect fill="#FFFFFF" height="49.6211" style="stroke: #A80036; stroke-width: 1.0;" width="10" x="643" y="808.832"/><rect fill="#FFFFFF" height="95.5527" style="stroke: #A80036; stroke-width: 1.0;" width="10" x="787" y="385.1504"/><rect fill="#FFFFFF" height="14.3105" style="stroke: #A80036; stroke-width: 1.0;" width="10" x="923.5" y="523.7031"/><rect fill="#FFFFFF" height="14.3105" style="stroke: #A80036; stroke-width: 1.0;" width="10" x="923.5" y="765.5215"/><rect fill="#FFFFFF" height="735.166" style="stroke: #000000; stroke-width: 1.0;" width="958" x="161" y="159.2871"/><rect fill="#FFFFFF" height="333.1055" style="stroke: #000000; stroke-width: 1.0;" width="714.5" x="394.5" y="212.9082"/><rect fill="#FFFFFF" height="285.1289" style="stroke: none; stroke-width: 1.0;" width="958" x="161" y="609.3242"/><rect fill="#FFFFFF" height="213.8633" style="stroke: #000000; stroke-width: 1.0;" width="852.5" x="171" y="673.5898"/><rect fill="#FFFFFF" height="139.2422" style="stroke: #000000; stroke-width: 1.0;" width="619" x="394.5" y="727.2109"/><line style="stroke: #A80036; stroke-width: 1.0; stroke-dasharray: 5.0,5.0;" x1="49" x2="49" y1="112.9766" y2="925.4531"/><line style="stroke: #A80036; stroke-width: 1.0; stroke-dasharray: 5.0,5.0;" x1="255" x2="255" y1="112.9766" y2="925.4531"/><line style="stroke: #A80036; stroke-width: 1.0; stroke-dasharray: 5.0,5.0;" x1="482.5" x2="482.5" y1="112.9766" y2="925.4531"/><line style="stroke: #A80036; stroke-width: 1.0; stroke-dasharray: 5.0,5.0;" x1="647.5" x2="647.5" y1="112.9766" y2="925.4531"/><line style="stroke: #A80036; stroke-width: 1.0; stroke-dasharray: 5.0,5.0;" x1="791.5" x2="791.5" y1="112.9766" y2="925.4531"/><line style="stroke: #A80036; stroke-width: 1.0; stroke-dasharray: 5.0,5.0;" x1="928.5" x2="928.5" y1="112.9766" y2="925.4531"/><text fill="#000000" font-family="sans-serif" font-size="14" lengthAdjust="spacingAndGlyphs" textLength="77" x="8" y="110.0234">Framework</text><ellipse cx="49.5" cy="43.4883" fill="#FEFECE" rx="8" ry="8" style="stroke: #A80036; stroke-width: 2.0;"/><path d="M49.5,51.4883 L49.5,78.4883 M36.5,59.4883 L62.5,59.4883 M49.5,78.4883 L36.5,93.4883 M49.5,78.4883 L62.5,93.4883 " fill="#FEFECE" style="stroke: #A80036; stroke-width: 2.0;"/><text fill="#000000" font-family="sans-serif" font-size="14" lengthAdjust="spacingAndGlyphs" textLength="77" x="8" y="937.9883">Framework</text><ellipse cx="49.5" cy="950.9414" fill="#FEFECE" rx="8" ry="8" style="stroke: #A80036; stroke-width: 2.0;"/><path d="M49.5,958.9414 L49.5,985.9414 M36.5,966.9414 L62.5,966.9414 M49.5,985.9414 L36.5,1000.9414 M49.5,985.9414 L62.5,1000.9414 " fill="#FEFECE" style="stroke: #A80036; stroke-width: 2.0;"/><rect fill="#FEFECE" height="30.4883" style="stroke: #A80036; stroke-width: 1.5;" width="149" x="181" y="81.4883"/><text fill="#000000" font-family="sans-serif" font-size="14" lengthAdjust="spacingAndGlyphs" textLength="135" x="188" y="102.0234">SCRBundleActivator</text><rect fill="#FEFECE" height="30.4883" style="stroke: #A80036; stroke-width: 1.5;" width="149" x="181" y="924.4531"/><text fill="#000000" font-family="sans-serif" font-size="14" lengthAdjust="spacingAndGlyphs" textLength="135" x="188" y="944.9883">SCRBundleActivator</text><rect fill="#FEFECE" height="30.4883" style="stroke: #A80036; stroke-width: 1.5;" width="156" x="404.5" y="81.4883"/><text fill="#000000" font-family="sans-serif" font-size="14" lengthAdjust="spacingAndGlyphs" textLength="142" x="411.5" y="102.0234">SCRBundleExtension</text><rect fill="#FEFECE" height="30.4883" style="stroke: #A80036; stroke-width: 1.5;" width="156" x="404.5" y="924.4531"/><text fill="#000000" font-family="sans-serif" font-size="14" lengthAdjust="spacingAndGlyphs" textLength="142" x="411.5" y="944.9883">SCRBundleExtension</text><rect fill="#FEFECE" height="30.4883" style="stroke: #A80036; stroke-width: 1.5;" width="155" x="570.5" y="81.4883"/><text fill="#000000" font-family="sans-serif" font-size="14" lengthAdjust="spacingAndGlyphs" textLength="141" x="577.5" y="102.0234">ComponentManager</text><rect fill="#FEFECE" height="30.4883" style="stroke: #A80036; stroke-width: 1.5;" width="155" x="570.5" y="924.4531"/><text fill="#000000" font-family="sans-serif" font-size="14" lengthAdjust="spacingAndGlyphs" textLength="141" x="577.5" y="944.9883">ComponentManager</text><rect fill="#FEFECE" height="30.4883" style="stroke: #A80036; stroke-width: 1.5;" width="103" x="740.5" y="81.4883"/><text fill="#000000" font-family="sans-serif" font-size="14" lengthAdjust="spacingAndGlyphs" textLength="89" x="747.5" y="102.0234">EnabledState</text><rect fill="#FEFECE" height="30.4883" style="stroke: #A80036; stroke-width: 1.5;" width="103" x="740.5" y="924.4531"/><text fill="#000000" font-family="sans-serif" font-size="14" lengthAdjust="spacingAndGlyphs" textLength="89" x="747.5" y="944.9883">EnabledState</text><rect fill="#FEFECE" height="30.4883" style="stroke: #A80036; stroke-width: 1.5;" width="150" x="853.5" y="81.4883"/><text fill="#000000" font-family="sans-serif" font-size="14" lengthAdjust="spacingAndGlyphs" textLength="136" x="860.5" y="102.0234">ComponentRegistry</text><rect fill="#FEFECE" height="30.4883" style="stroke: #A80036; stroke-width: 1.5;" width="150" x="853.5" y="924.4531"/><text fill="#000000" font-family="sans-serif" font-size="14" lengthAdjust="spacingAndGlyphs" textLength="136" x="860.5" y="944.9883">ComponentRegistry</text><rect fill="#FFFFFF" height="763.4766" style="stroke: #A80036; stroke-width: 1.0;" width="10" x="250.5" y="143.9766"/><rect fill="#FFFFFF" height="361.416" style="stroke: #A80036; stroke-width: 1.0;" width="10" x="477.5" y="197.5977"/><rect fill="#FFFFFF" height="167.5527" style="stroke: #A80036; stroke-width: 1.0;" width="10" x="477.5" y="711.9004"/><rect fill="#FFFFFF" height="243.4844" style="stroke: #A80036; stroke-width: 1.0;" width="10" x="643" y="251.2188"/><rect fill="#FFFFFF" height="60.6211" style="stroke: #A80036; stroke-width: 1.0;" width="10" x="648" y="288.5293"/><rect fill="#FFFFFF" height="49.6211" style="stroke: #A80036; stroke-width: 1.0;" width="10" x="643" y="808.832"/><rect fill="#FFFFFF" height="95.5527" style="stroke: #A80036; stroke-width: 1.0;" width="10" x="787" y="385.1504"/><rect fill="#FFFFFF" height="14.3105" style="stroke: #A80036; stroke-width: 1.0;" width="10" x="923.5" y="523.7031"/><rect fill="#FFFFFF" height="14.3105" style="stroke: #A80036; stroke-width: 1.0;" width="10" x="923.5" y="765.5215"/><polygon fill="#A80036" points="238.5,139.9766,248.5,143.9766,238.5,147.9766,242.5,143.9766" style="stroke: #A80036; stroke-width: 1.0;"/><line style="stroke: #A80036; stroke-width: 1.0;" x1="49.5" x2="244.5" y1="143.9766" y2="143.9766"/><text fill="#000000" font-family="sans-serif" font-size="13" lengthAdjust="spacingAndGlyphs" textLength="182" x="56.5" y="139.5449">BundleChanged(bundleEvent)</text><rect fill="none" height="735.166" style="stroke: #000000; stroke-width: 1.0;" width="958" x="161" y="159.2871"/><polygon fill="#EEEEEE" points="161,159.2871,223,159.2871,223,166.2871,213,176.2871,161,176.2871,161,159.2871" style="stroke: #000000; stroke-width: 1.0;"/><text fill="#000000" font-family="sans-serif" font-size="13" font-weight="bold" lengthAdjust="spacingAndGlyphs" textLength="17" x="176" y="172.8555">alt</text><text fill="#000000" font-family="sans-serif" font-size="11" font-weight="bold" lengthAdjust="spacingAndGlyphs" textLength="148" x="238" y="171.9219">[bundleEvent = STARTED]</text><polygon fill="#A80036" points="465.5,193.5977,475.5,197.5977,465.5,201.5977,469.5,197.5977" style="stroke: #A80036; stroke-width: 1.0;"/><line style="stroke: #A80036; stroke-width: 1.0;" x1="260.5" x2="471.5" y1="197.5977" y2="197.5977"/><text fill="#000000" font-family="sans-serif" font-size="13" lengthAdjust="spacingAndGlyphs" textLength="80" x="267.5" y="193.166">&lt;&lt;Create&gt;&gt;</text><rect fill="none" height="333.1055" style="stroke: #000000; stroke-width: 1.0;" width="714.5" x="394.5" y="212.9082"/><polygon fill="#EEEEEE" points="394.5,212.9082,468.5,212.9082,468.5,219.9082,458.5,229.9082,394.5,229.9082,394.5,212.9082" style="stroke: #000000; stroke-width: 1.0;"/><text fill="#000000" font-family="sans-serif" font-size="13" font-weight="bold" lengthAdjust="spacingAndGlyphs" textLength="29" x="409.5" y="226.4766">loop</text><text fill="#000000" font-family="sans-serif" font-size="11" font-weight="bold" lengthAdjust="spacingAndGlyphs" textLength="198" x="483.5" y="225.543">[for each component in the bundle]</text><polygon fill="#A80036" points="631,247.2188,641,251.2188,631,255.2188,635,251.2188" style="stroke: #A80036; stroke-width: 1.0;"/><line style="stroke: #A80036; stroke-width: 1.0;" x1="487.5" x2="637" y1="251.2188" y2="251.2188"/><text fill="#000000" font-family="sans-serif" font-size="13" lengthAdjust="spacingAndGlyphs" textLength="80" x="494.5" y="246.7871">&lt;&lt;Create&gt;&gt;</text><line style="stroke: #A80036; stroke-width: 1.0;" x1="653" x2="700" y1="275.8398" y2="275.8398"/><line style="stroke: #A80036; stroke-width: 1.0;" x1="700" x2="700" y1="275.8398" y2="288.8398"/><line style="stroke: #A80036; stroke-width: 1.0;" x1="659" x2="700" y1="288.8398" y2="288.8398"/><polygon fill="#A80036" points="669,284.8398,659,288.8398,669,292.8398,665,288.8398" style="stroke: #A80036; stroke-width: 1.0;"/><text fill="#000000" font-family="sans-serif" font-size="13" lengthAdjust="spacingAndGlyphs" textLength="41" x="665" y="271.0977">Enable</text><polygon fill="#FBFB77" points="663,306.8398,663,331.8398,884,331.8398,884,316.8398,874,306.8398,663,306.8398" style="stroke: #A80036; stroke-width: 1.0;"/><line style="stroke: #A80036; stroke-width: 1.0;" x1="874" x2="874" y1="306.8398" y2="316.8398"/><line style="stroke: #A80036; stroke-width: 1.0;" x1="884" x2="874" y1="316.8398" y2="316.8398"/><text fill="#000000" font-family="sans-serif" font-size="13" lengthAdjust="spacingAndGlyphs" textLength="200" x="669" y="324.4082">See ComponentManager::Enable</text><line style="stroke: #A80036; stroke-width: 1.0; stroke-dasharray: 2.0,2.0;" x1="658" x2="700" y1="348.1504" y2="348.1504"/><line style="stroke: #A80036; stroke-width: 1.0; stroke-dasharray: 2.0,2.0;" x1="700" x2="700" y1="348.1504" y2="361.1504"/><line style="stroke: #A80036; stroke-width: 1.0; stroke-dasharray: 2.0,2.0;" x1="653" x2="700" y1="361.1504" y2="361.1504"/><polygon fill="#A80036" points="663,357.1504,653,361.1504,663,365.1504,659,361.1504" style="stroke: #A80036; stroke-width: 1.0;"/><polygon fill="#A80036" points="775,381.1504,785,385.1504,775,389.1504,779,385.1504" style="stroke: #A80036; stroke-width: 1.0;"/><line style="stroke: #A80036; stroke-width: 1.0;" x1="653" x2="781" y1="385.1504" y2="385.1504"/><text fill="#000000" font-family="sans-serif" font-size="13" lengthAdjust="spacingAndGlyphs" textLength="115" x="660" y="380.7188">GetConfigurations</text><polygon fill="#FBFB77" points="802,398.4609,802,469.4609,1099,469.4609,1099,408.4609,1089,398.4609,802,398.4609" style="stroke: #A80036; stroke-width: 1.0;"/><line style="stroke: #A80036; stroke-width: 1.0;" x1="1089" x2="1089" y1="398.4609" y2="408.4609"/><line style="stroke: #A80036; stroke-width: 1.0;" x1="1099" x2="1089" y1="408.4609" y2="408.4609"/><text fill="#000000" font-family="sans-serif" font-size="13" lengthAdjust="spacingAndGlyphs" textLength="162" x="808" y="416.0293">This method waits for the</text><text fill="#000000" font-family="sans-serif" font-size="13" lengthAdjust="spacingAndGlyphs" textLength="227" x="808" y="431.3398">Configurations to become available.</text><text fill="#000000" font-family="sans-serif" font-size="13" lengthAdjust="spacingAndGlyphs" textLength="246" x="808" y="446.6504">Configuration creation is performed on</text><text fill="#000000" font-family="sans-serif" font-size="13" lengthAdjust="spacingAndGlyphs" textLength="276" x="808" y="461.9609">another thread as part if the state transition</text><polygon fill="#A80036" points="664,476.7031,654,480.7031,664,484.7031,660,480.7031" style="stroke: #A80036; stroke-width: 1.0;"/><line style="stroke: #A80036; stroke-width: 1.0; stroke-dasharray: 2.0,2.0;" x1="658" x2="791" y1="480.7031" y2="480.7031"/><polygon fill="#A80036" points="498.5,490.7031,488.5,494.7031,498.5,498.7031,494.5,494.7031" style="stroke: #A80036; stroke-width: 1.0;"/><line style="stroke: #A80036; stroke-width: 1.0; stroke-dasharray: 2.0,2.0;" x1="492.5" x2="647" y1="494.7031" y2="494.7031"/><polygon fill="#A80036" points="911.5,519.7031,921.5,523.7031,911.5,527.7031,915.5,523.7031" style="stroke: #A80036; stroke-width: 1.0;"/><line style="stroke: #A80036; stroke-width: 1.0;" x1="487.5" x2="917.5" y1="523.7031" y2="523.7031"/><text fill="#000000" font-family="sans-serif" font-size="13" lengthAdjust="spacingAndGlyphs" textLength="159" x="494.5" y="519.2715">Add Component Manager</text><polygon fill="#A80036" points="498.5,534.0137,488.5,538.0137,498.5,542.0137,494.5,538.0137" style="stroke: #A80036; stroke-width: 1.0;"/><line style="stroke: #A80036; stroke-width: 1.0; stroke-dasharray: 2.0,2.0;" x1="492.5" x2="927.5" y1="538.0137" y2="538.0137"/><polygon fill="#A80036" points="271.5,555.0137,261.5,559.0137,271.5,563.0137,267.5,559.0137" style="stroke: #A80036; stroke-width: 1.0;"/><line style="stroke: #A80036; stroke-width: 1.0; stroke-dasharray: 2.0,2.0;" x1="265.5" x2="481.5" y1="559.0137" y2="559.0137"/><line style="stroke: #A80036; stroke-width: 1.0;" x1="260.5" x2="302.5" y1="588.3242" y2="588.3242"/><line style="stroke: #A80036; stroke-width: 1.0;" x1="302.5" x2="302.5" y1="588.3242" y2="601.3242"/><line style="stroke: #A80036; stroke-width: 1.0;" x1="261.5" x2="302.5" y1="601.3242" y2="601.3242"/><polygon fill="#A80036" points="271.5,597.3242,261.5,601.3242,271.5,605.3242,267.5,601.3242" style="stroke: #A80036; stroke-width: 1.0;"/><text fill="#000000" font-family="sans-serif" font-size="13" lengthAdjust="spacingAndGlyphs" textLength="203" x="267.5" y="583.582">Add to list of bundle extensions</text><line style="stroke: #000000; stroke-width: 1.0; stroke-dasharray: 2.0,2.0;" x1="161" x2="1119" y1="610.3242" y2="610.3242"/><text fill="#000000" font-family="sans-serif" font-size="11" font-weight="bold" lengthAdjust="spacingAndGlyphs" textLength="136" x="166" y="620.959">[any other bundle event]</text><line style="stroke: #A80036; stroke-width: 1.0;" x1="260.5" x2="302.5" y1="645.5898" y2="645.5898"/><line style="stroke: #A80036; stroke-width: 1.0;" x1="302.5" x2="302.5" y1="645.5898" y2="658.5898"/><line style="stroke: #A80036; stroke-width: 1.0;" x1="261.5" x2="302.5" y1="658.5898" y2="658.5898"/><polygon fill="#A80036" points="271.5,654.5898,261.5,658.5898,271.5,662.5898,267.5,658.5898" style="stroke: #A80036; stroke-width: 1.0;"/><text fill="#000000" font-family="sans-serif" font-size="13" lengthAdjust="spacingAndGlyphs" textLength="176" x="267.5" y="640.8477">GetBundleExtension(bundle)</text><rect fill="none" height="213.8633" style="stroke: #000000; stroke-width: 1.0;" width="852.5" x="171" y="673.5898"/><polygon fill="#EEEEEE" points="171,673.5898,233,673.5898,233,680.5898,223,690.5898,171,690.5898,171,673.5898" style="stroke: #000000; stroke-width: 1.0;"/><text fill="#000000" font-family="sans-serif" font-size="13" font-weight="bold" lengthAdjust="spacingAndGlyphs" textLength="17" x="186" y="687.1582">alt</text><text fill="#000000" font-family="sans-serif" font-size="11" font-weight="bold" lengthAdjust="spacingAndGlyphs" textLength="137" x="248" y="686.2246">[bundleExtension found]</text><polygon fill="#A80036" points="465.5,707.9004,475.5,711.9004,465.5,715.9004,469.5,711.9004" style="stroke: #A80036; stroke-width: 1.0;"/><line style="stroke: #A80036; stroke-width: 1.0;" x1="260.5" x2="471.5" y1="711.9004" y2="711.9004"/><text fill="#000000" font-family="sans-serif" font-size="13" lengthAdjust="spacingAndGlyphs" textLength="38" x="267.5" y="707.4688">delete</text><rect fill="none" height="139.2422" style="stroke: #000000; stroke-width: 1.0;" width="619" x="394.5" y="727.2109"/><polygon fill="#EEEEEE" points="394.5,727.2109,468.5,727.2109,468.5,734.2109,458.5,744.2109,394.5,744.2109,394.5,727.2109" style="stroke: #000000; stroke-width: 1.0;"/><text fill="#000000" font-family="sans-serif" font-size="13" font-weight="bold" lengthAdjust="spacingAndGlyphs" textLength="29" x="409.5" y="740.7793">loop</text><text fill="#000000" font-family="sans-serif" font-size="11" font-weight="bold" lengthAdjust="spacingAndGlyphs" textLength="167" x="483.5" y="739.8457">[for each componentManager]</text><polygon fill="#A80036" points="911.5,761.5215,921.5,765.5215,911.5,769.5215,915.5,765.5215" style="stroke: #A80036; stroke-width: 1.0;"/><line style="stroke: #A80036; stroke-width: 1.0;" x1="487.5" x2="917.5" y1="765.5215" y2="765.5215"/><text fill="#000000" font-family="sans-serif" font-size="13" lengthAdjust="spacingAndGlyphs" textLength="183" x="494.5" y="761.0898">Remove Component Manager</text><polygon fill="#A80036" points="498.5,775.832,488.5,779.832,498.5,783.832,494.5,779.832" style="stroke: #A80036; stroke-width: 1.0;"/><line style="stroke: #A80036; stroke-width: 1.0; stroke-dasharray: 2.0,2.0;" x1="492.5" x2="927.5" y1="779.832" y2="779.832"/><polygon fill="#A80036" points="631,804.832,641,808.832,631,812.832,635,808.832" style="stroke: #A80036; stroke-width: 1.0;"/><line style="stroke: #A80036; stroke-width: 1.0;" x1="487.5" x2="637" y1="808.832" y2="808.832"/><text fill="#000000" font-family="sans-serif" font-size="13" lengthAdjust="spacingAndGlyphs" textLength="45" x="494.5" y="804.4004">disable</text><polygon fill="#FBFB77" points="658,822.1426,658,847.1426,885,847.1426,885,832.1426,875,822.1426,658,822.1426" style="stroke: #A80036; stroke-width: 1.0;"/><line style="stroke: #A80036; stroke-width: 1.0;" x1="875" x2="875" y1="822.1426" y2="832.1426"/><line style="stroke: #A80036; stroke-width: 1.0;" x1="885" x2="875" y1="832.1426" y2="832.1426"/><text fill="#000000" font-family="sans-serif" font-size="13" lengthAdjust="spacingAndGlyphs" textLength="206" x="664" y="839.7109">See ComponentManager::Disable</text><polygon fill="#A80036" points="498.5,854.4531,488.5,858.4531,498.5,862.4531,494.5,858.4531" style="stroke: #A80036; stroke-width: 1.0;"/><line style="stroke: #A80036; stroke-width: 1.0; stroke-dasharray: 2.0,2.0;" x1="492.5" x2="647" y1="858.4531" y2="858.4531"/><line style="stroke: #A80036; stroke-width: 2.0;" x1="639" x2="657" y1="849.4531" y2="867.4531"/><line style="stroke: #A80036; stroke-width: 2.0;" x1="639" x2="657" y1="867.4531" y2="849.4531"/><polygon fill="#A80036" points="271.5,875.4531,261.5,879.4531,271.5,883.4531,267.5,879.4531" style="stroke: #A80036; stroke-width: 1.0;"/><line style="stroke: #A80036; stroke-width: 1.0; stroke-dasharray: 2.0,2.0;" x1="265.5" x2="481.5" y1="879.4531" y2="879.4531"/><line style="stroke: #A80036; stroke-width: 2.0;" x1="473.5" x2="491.5" y1="870.4531" y2="888.4531"/><line style="stroke: #A80036; stroke-width: 2.0;" x1="473.5" x2="491.5" y1="888.4531" y2="870.4531"/><polygon fill="#A80036" points="60.5,903.4531,50.5,907.4531,60.5,911.4531,56.5,907.4531" style="stroke: #A80036; stroke-width: 1.0;"/><line style="stroke: #A80036; stroke-width: 1.0; stroke-dasharray: 2.0,2.0;" x1="54.5" x2="254.5" y1="907.4531" y2="907.4531"/></g></svg>