<?xml version="1.0" encoding="UTF-8" standalone="no"?><svg xmlns="http://www.w3.org/2000/svg" xmlns:xlink="http://www.w3.org/1999/xlink" contentScriptType="application/ecmascript" contentStyleType="text/css" height="498px" preserveAspectRatio="none" style="width:881px;height:498px;" version="1.1" viewBox="0 0 881 498" width="881px" zoomAndPan="magnify"><defs/><g><text fill="#000000" font-family="sans-serif" font-size="14" font-weight="bold" lengthAdjust="spacingAndGlyphs" textLength="363" x="265" y="23.5352">ServiceComponentRuntimeImpl::EnableComponent</text><rect fill="#FFFFFF" height="259.7949" style="stroke: #A80036; stroke-width: 1.0;" width="10" x="253" y="143.9766"/><rect fill="#FFFFFF" height="29.3105" style="stroke: #A80036; stroke-width: 1.0;" width="10" x="483" y="173.2871"/><rect fill="#FFFFFF" height="79.9316" style="stroke: #A80036; stroke-width: 1.0;" width="10" x="645.5" y="256.2188"/><rect fill="#FFFFFF" height="157.8633" style="stroke: #000000; stroke-width: 1.0;" width="747" x="133" y="217.9082"/><rect fill="#FFFFFF" height="31.3105" style="stroke: none; stroke-width: 1.0;" width="747" x="133" y="344.4609"/><line style="stroke: #A80036; stroke-width: 1.0; stroke-dasharray: 5.0,5.0;" x1="31" x2="31" y1="112.9766" y2="422.082"/><line style="stroke: #A80036; stroke-width: 1.0; stroke-dasharray: 5.0,5.0;" x1="258" x2="258" y1="112.9766" y2="422.082"/><line style="stroke: #A80036; stroke-width: 1.0; stroke-dasharray: 5.0,5.0;" x1="488" x2="488" y1="112.9766" y2="422.082"/><line style="stroke: #A80036; stroke-width: 1.0; stroke-dasharray: 5.0,5.0;" x1="650" x2="650" y1="112.9766" y2="422.082"/><line style="stroke: #A80036; stroke-width: 1.0; stroke-dasharray: 5.0,5.0;" x1="793" x2="793" y1="112.9766" y2="422.082"/><text fill="#000000" font-family="sans-serif" font-size="14" lengthAdjust="spacingAndGlyphs" textLength="40" x="8" y="110.0234">Client</text><ellipse cx="31" cy="43.4883" fill="#FEFECE" rx="8" ry="8" style="stroke: #A80036; stroke-width: 2.0;"/><path d="M31,51.4883 L31,78.4883 M18,59.4883 L44,59.4883 M31,78.4883 L18,93.4883 M31,78.4883 L44,93.4883 " fill="#FEFECE" style="stroke: #A80036; stroke-width: 2.0;"/><text fill="#000000" font-family="sans-serif" font-size="14" lengthAdjust="spacingAndGlyphs" textLength="40" x="8" y="434.6172">Client</text><ellipse cx="31" cy="447.5703" fill="#FEFECE" rx="8" ry="8" style="stroke: #A80036; stroke-width: 2.0;"/><path d="M31,455.5703 L31,482.5703 M18,463.5703 L44,463.5703 M31,482.5703 L18,497.5703 M31,482.5703 L44,497.5703 " fill="#FEFECE" style="stroke: #A80036; stroke-width: 2.0;"/><rect fill="#FEFECE" height="30.4883" style="stroke: #A80036; stroke-width: 1.5;" width="230" x="143" y="81.4883"/><text fill="#000000" font-family="sans-serif" font-size="14" lengthAdjust="spacingAndGlyphs" textLength="216" x="150" y="102.0234">ServiceComponentRuntimeImpl</text><rect fill="#FEFECE" height="30.4883" style="stroke: #A80036; stroke-width: 1.5;" width="230" x="143" y="421.082"/><text fill="#000000" font-family="sans-serif" font-size="14" lengthAdjust="spacingAndGlyphs" textLength="216" x="150" y="441.6172">ServiceComponentRuntimeImpl</text><rect fill="#FEFECE" height="30.4883" style="stroke: #A80036; stroke-width: 1.5;" width="150" x="413" y="81.4883"/><text fill="#000000" font-family="sans-serif" font-size="14" lengthAdjust="spacingAndGlyphs" textLength="136" x="420" y="102.0234">ComponentRegistry</text><rect fill="#FEFECE" height="30.4883" style="stroke: #A80036; stroke-width: 1.5;" width="150" x="413" y="421.082"/><text fill="#000000" font-family="sans-serif" font-size="14" lengthAdjust="spacingAndGlyphs" textLength="136" x="420" y="441.6172">ComponentRegistry</text><rect fill="#FEFECE" height="30.4883" style="stroke: #A80036; stroke-width: 1.5;" width="155" x="573" y="81.4883"/><text fill="#000000" font-family="sans-serif" font-size="14" lengthAdjust="spacingAndGlyphs" textLength="141" x="580" y="102.0234">ComponentManager</text><rect fill="#FEFECE" height="30.4883" style="stroke: #A80036; stroke-width: 1.5;" width="155" x="573" y="421.082"/><text fill="#000000" font-family="sans-serif" font-size="14" lengthAdjust="spacingAndGlyphs" textLength="141" x="580" y="441.6172">ComponentManager</text><rect fill="#FEFECE" height="30.4883" style="stroke: #A80036; stroke-width: 1.5;" width="110" x="738" y="81.4883"/><text fill="#000000" font-family="sans-serif" font-size="14" lengthAdjust="spacingAndGlyphs" textLength="96" x="745" y="102.0234">runtime_error</text><rect fill="#FEFECE" height="30.4883" style="stroke: #A80036; stroke-width: 1.5;" width="110" x="738" y="421.082"/><text fill="#000000" font-family="sans-serif" font-size="14" lengthAdjust="spacingAndGlyphs" textLength="96" x="745" y="441.6172">runtime_error</text><rect fill="#FFFFFF" height="259.7949" style="stroke: #A80036; stroke-width: 1.0;" width="10" x="253" y="143.9766"/><rect fill="#FFFFFF" height="29.3105" style="stroke: #A80036; stroke-width: 1.0;" width="10" x="483" y="173.2871"/><rect fill="#FFFFFF" height="79.9316" style="stroke: #A80036; stroke-width: 1.0;" width="10" x="645.5" y="256.2188"/><polygon fill="#A80036" points="241,139.9766,251,143.9766,241,147.9766,245,143.9766" style="stroke: #A80036; stroke-width: 1.0;"/><line style="stroke: #A80036; stroke-width: 1.0;" x1="31" x2="247" y1="143.9766" y2="143.9766"/><text fill="#000000" font-family="sans-serif" font-size="13" lengthAdjust="spacingAndGlyphs" textLength="203" x="38" y="139.5449">EnableComponent(name,bundle)</text><polygon fill="#A80036" points="471,169.2871,481,173.2871,471,177.2871,475,173.2871" style="stroke: #A80036; stroke-width: 1.0;"/><line style="stroke: #A80036; stroke-width: 1.0;" x1="263" x2="477" y1="173.2871" y2="173.2871"/><text fill="#000000" font-family="sans-serif" font-size="13" lengthAdjust="spacingAndGlyphs" textLength="201" x="270" y="168.8555">GetComponent(name, bundleID)</text><polygon fill="#A80036" points="274,198.5977,264,202.5977,274,206.5977,270,202.5977" style="stroke: #A80036; stroke-width: 1.0;"/><line style="stroke: #A80036; stroke-width: 1.0; stroke-dasharray: 2.0,2.0;" x1="268" x2="487" y1="202.5977" y2="202.5977"/><text fill="#000000" font-family="sans-serif" font-size="13" lengthAdjust="spacingAndGlyphs" textLength="59" x="280" y="198.166">compMgr</text><rect fill="none" height="157.8633" style="stroke: #000000; stroke-width: 1.0;" width="747" x="133" y="217.9082"/><polygon fill="#EEEEEE" points="133,217.9082,195,217.9082,195,224.9082,185,234.9082,133,234.9082,133,217.9082" style="stroke: #000000; stroke-width: 1.0;"/><text fill="#000000" font-family="sans-serif" font-size="13" font-weight="bold" lengthAdjust="spacingAndGlyphs" textLength="17" x="148" y="231.4766">alt</text><text fill="#000000" font-family="sans-serif" font-size="11" font-weight="bold" lengthAdjust="spacingAndGlyphs" textLength="107" x="210" y="230.543">[component found]</text><polygon fill="#A80036" points="633.5,252.2188,643.5,256.2188,633.5,260.2188,637.5,256.2188" style="stroke: #A80036; stroke-width: 1.0;"/><line style="stroke: #A80036; stroke-width: 1.0;" x1="263" x2="639.5" y1="256.2188" y2="256.2188"/><text fill="#000000" font-family="sans-serif" font-size="13" lengthAdjust="spacingAndGlyphs" textLength="41" x="270" y="251.7871">Enable</text><polygon fill="#FBFB77" points="660,269.5293,660,309.5293,870,309.5293,870,279.5293,860,269.5293,660,269.5293" style="stroke: #A80036; stroke-width: 1.0;"/><line style="stroke: #A80036; stroke-width: 1.0;" x1="860" x2="860" y1="269.5293" y2="279.5293"/><line style="stroke: #A80036; stroke-width: 1.0;" x1="870" x2="860" y1="279.5293" y2="279.5293"/><text fill="#000000" font-family="sans-serif" font-size="13" lengthAdjust="spacingAndGlyphs" textLength="185" x="666" y="287.0977">see the sequence diagram for</text><text fill="#000000" font-family="sans-serif" font-size="13" lengthAdjust="spacingAndGlyphs" textLength="175" x="666" y="302.4082">ComponentManager::Enable</text><polygon fill="#A80036" points="274,332.1504,264,336.1504,274,340.1504,270,336.1504" style="stroke: #A80036; stroke-width: 1.0;"/><line style="stroke: #A80036; stroke-width: 1.0; stroke-dasharray: 2.0,2.0;" x1="268" x2="649.5" y1="336.1504" y2="336.1504"/><text fill="#000000" font-family="sans-serif" font-size="13" lengthAdjust="spacingAndGlyphs" textLength="87" x="280" y="331.7188">shared_future</text><line style="stroke: #000000; stroke-width: 1.0; stroke-dasharray: 2.0,2.0;" x1="133" x2="880" y1="345.4609" y2="345.4609"/><polygon fill="#A80036" points="781,363.4609,791,367.4609,781,371.4609,785,367.4609" style="stroke: #A80036; stroke-width: 1.0;"/><line style="stroke: #A80036; stroke-width: 1.0;" x1="263" x2="787" y1="367.4609" y2="367.4609"/><text fill="#000000" font-family="sans-serif" font-size="13" lengthAdjust="spacingAndGlyphs" textLength="193" x="270" y="363.0293">throw("Component not found")</text><polygon fill="#A80036" points="42,399.7715,32,403.7715,42,407.7715,38,403.7715" style="stroke: #A80036; stroke-width: 1.0;"/><line style="stroke: #A80036; stroke-width: 1.0; stroke-dasharray: 2.0,2.0;" x1="36" x2="257" y1="403.7715" y2="403.7715"/><text fill="#000000" font-family="sans-serif" font-size="13" lengthAdjust="spacingAndGlyphs" textLength="87" x="48" y="399.3398">shared_future</text></g></svg>